<?xml version="1.0" encoding="utf-8"?>
<!-- Generator: Adobe Illustrator 17.0.0, SVG Export Plug-In . SVG Version: 6.00 Build 0)  -->
<!DOCTYPE svg PUBLIC "-//W3C//DTD SVG 1.1//EN" "http://www.w3.org/Graphics/SVG/1.1/DTD/svg11.dtd">
<svg version="1.1" id="Layer_1" xmlns="http://www.w3.org/2000/svg" xmlns:xlink="http://www.w3.org/1999/xlink" x="0px" y="0px"
	 width="159.626px" height="442.029px" viewBox="0 0 159.626 442.029" enable-background="new 0 0 159.626 442.029"
	 xml:space="preserve" xmlns:pulse="-">
<g>
	<path d="M155.746,439.109c-2.151,0.626-5.316,1.055-9.485,1.361c-2.389,0.174-5.169,0.311-8.324,0.424
		c-3.094,0.111-6.558,0.197-10.376,0.272h-0.004l-0.581,0.011l-0.017,0.005h-0.003v-0.004l-0.567,0.01l-0.366,0.007l-0.225,0.004
		l-0.597,0.011l-0.142,0.003l-0.461,0.008l-0.516,0.009l-0.091,0.002l-0.613,0.01l-0.287,0.005l-0.331,0.005l-0.623,0.01
		l-0.051,0.001l-0.578,0.01l-0.44,0.007l-0.193,0.003h-0.004l-0.635,0.01l-0.201,0.003h-0.004l-0.444,0.007l-0.602,0.009
		l-0.047,0.001l-0.655,0.01l-0.358,0.006l-0.302,0.004l-0.661,0.01l-0.106,0.002h-0.004l-0.565,0.008l-0.522,0.008l-0.154,0.002
		l-0.681,0.01l-0.266,0.004l-0.42,0.006l-0.692,0.01l-0.012,0.005h-0.003v-0.004l-0.681,0.01l-0.434,0.006l-0.269,0.004
		l-0.706,0.011l-0.167,0.002l-0.546,0.008l-0.605,0.009l-0.108,0.002h-0.005l-0.722,0.011l-0.338,0.005l-0.39,0.006l-0.734,0.011
		l-0.058,0.001l-0.68,0.01l-0.516,0.008l-0.228,0.003l-0.744,0.012l-0.233,0.004l-0.521,0.008l-0.698,0.011l-0.057,0.001h-0.004
		l-0.765,0.012l-0.415,0.007l-0.354,0.006l-0.775,0.012l-0.121,0.003l-0.659,0.01l-0.605,0.011l-0.18,0.003l-0.791,0.013
		l-0.306,0.006l-0.489,0.008l-0.8,0.014l-0.017,0.004h-0.002v-0.004l-0.787,0.015l-0.5,0.009l-0.311,0.006l-0.816,0.015
		l-0.191,0.003l-0.631,0.012l-0.7,0.014l-0.126,0.002l-0.828,0.016l-0.386,0.008l-0.45,0.009l-0.842,0.017h-0.004l-0.062,0.001
		l-0.781,0.016l-0.59,0.012l-0.263,0.006l-0.857,0.018l-0.265,0.006l-1.399,0.03l-0.066,0.002l-0.873,0.019l-0.472,0.011
		l-0.405,0.009l-0.883,0.021l-0.133,0.003l-0.751,0.018l-0.687,0.016h-0.004l-0.202,0.005l-0.899,0.022l-0.347,0.009l-0.556,0.014
		l-0.908,0.023h-0.05l-0.877-0.023l-0.583-0.014l-0.288-0.007l-0.867-0.021l-0.291-0.007l-0.571-0.014l-0.857-0.02h-0.038
		l-0.004-0.001v-0.001l-0.807-0.018l-0.571-0.014l-0.276-0.006l-0.843-0.019l-0.287-0.006l-0.551-0.012l-0.834-0.018h-0.012
		l-0.009-0.001l-0.808-0.017l-0.559-0.012l-0.264-0.005l-0.82-0.017l-0.283-0.006l-0.531-0.011l-0.809-0.016h-0.013l-0.788-0.016
		h-0.004l-0.548-0.01l-0.248-0.005l-0.795-0.015l-0.279-0.006l-0.512-0.009l-0.785-0.015H63.16h-0.016l-0.748-0.014l-0.535-0.009
		l-0.241-0.005l-0.771-0.013l-0.275-0.005l-0.492-0.009l-0.761-0.013h-0.013h-0.019l-0.725-0.012l-0.522-0.009l-0.23-0.004
		l-0.747-0.012l-0.27-0.005l-0.468-0.007h-0.004l-0.737-0.012h-0.009l-0.023-0.001l-0.697-0.011h-0.004l-0.51-0.008l-0.214-0.003
		l-0.723-0.011h-0.004l-0.265-0.005l-0.453-0.007l-0.709-0.01h-0.008l-0.026-0.001l-0.675-0.01l-0.496-0.008l-0.207-0.003
		l-0.699-0.011l-0.26-0.003l-0.434-0.007l-0.689-0.01h-0.008l-0.029-0.001l-0.647-0.009l-0.483-0.007l-0.197-0.003l-0.674-0.01
		l-0.254-0.004l-0.416-0.006l-0.665-0.01h-0.004h-0.031l-0.624-0.009l-0.469-0.008l-0.186-0.002l-0.651-0.01l-0.248-0.004
		l-0.397-0.006l-0.64-0.009h-0.005l-0.033-0.001l-0.598-0.009l-0.455-0.007h-0.004l-0.176-0.003l-0.621-0.009l-0.243-0.004h-0.004
		l-0.378-0.006l-0.616-0.01h-0.027h-0.009l-0.576-0.009l-0.44-0.008l-0.166-0.002l-0.601-0.01l-0.232-0.004H36.67l-0.361-0.006
		l-0.591-0.01l-0.033-0.001h-0.004l-0.55-0.009l-0.426-0.008l-0.156-0.003l-0.576-0.01l-0.229-0.004l-0.343-0.007
		c-4.082-0.075-7.776-0.161-11.068-0.274c-3.357-0.115-6.303-0.255-8.82-0.437c-4.213-0.304-7.414-0.733-9.591-1.361
		C1.315,438.368,0,437.25,0,435.655v-95.061V3.529V3.447l0.017-0.096c0.196-1.133,1.565-1.954,4.103-2.46
		c2.103-0.418,5.196-0.715,9.28-0.887L13.441,0h0.146h132.599l0.041,0.004c4.084,0.172,7.177,0.469,9.28,0.887
		c2.539,0.506,3.907,1.327,4.103,2.46l0.017,0.096v0.082v337.064v95.062C159.627,437.243,158.326,438.358,155.746,439.109
		 M13.091,345.159c-4.358,0.053-7.05-0.144-8.845-0.758c-0.899-0.308-1.577-0.712-2.12-1.231v92.485c0,0.508,0.798,0.974,2.377,1.43
		c1.915,0.552,4.785,0.944,8.588,1.235V345.159z M14.084,344.162h22.767c5.082,0,9.366-2.815,14.316-6.067
		c6.923-4.549,15.121-9.935,28.647-9.935c13.525,0,21.723,5.386,28.646,9.935c4.95,3.252,9.235,6.067,14.317,6.067h22.913V2.126
		H14.084V344.162z M2.126,341.594c0.552,0.867,1.273,1.471,2.437,1.869c1.685,0.576,4.283,0.76,8.528,0.708V2.139
		C9.343,2.307,6.49,2.586,4.535,2.976c-1.48,0.295-2.283,0.528-2.409,0.696v336.922V341.594z M157.501,341.593v-1V3.672
		c-0.126-0.168-0.929-0.401-2.409-0.696c-1.93-0.384-4.734-0.662-8.41-0.831v342.027c4.159,0.047,6.716-0.14,8.382-0.709
		C156.228,343.065,156.949,342.46,157.501,341.593 M32.93,437.883c0.004-0.745,0.012-1.488,0.02-2.228
		c0.27-22.226,2.639-45.282,9.656-62.797c7.066-17.636,18.83-29.67,37.873-29.67c19.041,0,30.806,12.034,37.872,29.67
		c7.018,17.515,9.387,40.571,9.656,62.797c0.009,0.74,0.016,1.483,0.02,2.228l0.006,1.155c3.573-0.071,6.848-0.155,9.829-0.261
		c2.887-0.104,5.494-0.231,7.828-0.395v-93.228h-22.913c-5.371,0-9.773-2.892-14.86-6.234c-6.806-4.472-14.866-9.768-28.103-9.768
		c-13.238,0-21.298,5.296-28.104,9.768c-5.087,3.342-9.489,6.234-14.859,6.234H14.084v93.238c2.465,0.171,5.236,0.302,8.315,0.408
		c3.181,0.108,6.688,0.192,10.525,0.265L32.93,437.883z M33.938,435.667c-0.009,0.744-0.016,1.485-0.02,2.22
		c-0.002,0.319-0.003,0.718-0.004,1.196l0.092,0.002l0.577,0.01l0.156,0.003l0.426,0.007l0.549,0.01h0.033h0.004l0.592,0.01
		l0.36,0.007l0.232,0.003h0.004l0.602,0.01l0.165,0.003l0.441,0.007l0.576,0.009l0.026,0.001h0.009l0.616,0.01l0.379,0.006
		l0.237,0.003l0.626,0.01h0.005l0.175,0.003l0.451,0.007l0.602,0.009h0.005h0.033l0.636,0.01l0.397,0.006l0.248,0.003l0.651,0.01
		l0.186,0.003l0.468,0.007l0.629,0.009h0.005l0.031,0.001l0.66,0.01l0.416,0.006l0.254,0.004l0.674,0.009l0.197,0.003l0.483,0.007
		l0.655,0.01h0.009l0.028,0.001l0.681,0.01l0.434,0.006l0.26,0.004l0.699,0.01l0.207,0.004l0.496,0.007l0.683,0.01h0.008
		l0.026,0.001l0.705,0.011h0.004l0.454,0.007l0.265,0.004l0.718,0.011l0.218,0.004h0.005l0.509,0.008l0.706,0.011h0.012h0.023
		l0.729,0.012l0.469,0.008h0.004l0.27,0.004l0.747,0.012l0.229,0.004l0.523,0.009l0.737,0.012h0.012l0.02,0.001l0.749,0.013
		l0.492,0.008l0.274,0.005l0.771,0.014l0.241,0.004l0.535,0.01l0.765,0.013h0.016l0.017,0.001l0.769,0.014l0.511,0.01l0.279,0.005
		l0.795,0.015l0.252,0.005h0.004l0.548,0.011l0.788,0.015h0.004h0.013l0.81,0.017l0.531,0.01l0.283,0.006l0.819,0.017l0.264,0.006
		l0.56,0.012l0.82,0.017h0.012h0.009l0.821,0.018l0.551,0.012l0.287,0.007l0.843,0.019l0.276,0.006l0.572,0.013l0.848,0.02h0.042
		h0.004v0.001l0.82,0.019l0.571,0.014l0.291,0.007l0.867,0.021l0.288,0.008l0.583,0.014l0.852,0.022l0.883-0.023l0.557-0.014
		l0.347-0.008l0.898-0.022h0.004l0.202-0.005l0.687-0.017l0.752-0.017h0.004l0.136-0.004l0.883-0.02l0.406-0.009l0.472-0.011
		l0.873-0.02l0.066-0.001l1.398-0.031l0.266-0.005l0.857-0.019l0.262-0.005l0.59-0.012l0.782-0.017h0.004l0.061-0.001l0.842-0.017
		l0.45-0.009l0.387-0.007h0.004l0.831-0.017l0.127-0.002l0.7-0.013l0.631-0.012l0.19-0.004l0.816-0.015l0.311-0.006l0.5-0.009
		l0.805-0.014l0.016-0.005h0.002v0.004l0.784-0.013l0.488-0.009l0.307-0.005l0.79-0.014l0.181-0.003l0.605-0.01l0.658-0.011
		l0.122-0.002l0.774-0.013l0.354-0.005l0.416-0.007l0.76-0.012l0.057-0.002h0.004l0.702-0.011l0.521-0.008l0.233-0.004h0.005
		l0.748-0.011l0.228-0.004l0.516-0.007l0.68-0.011l0.058-0.001l0.734-0.011l0.39-0.006l0.338-0.005l0.718-0.011l0.109-0.001h0.004
		l0.609-0.009l0.546-0.008l0.167-0.003l0.707-0.01l0.268-0.004l0.434-0.007l0.694-0.01l0.012-0.004h0.003v0.004l0.679-0.01
		l0.42-0.006l0.266-0.004l0.681-0.01l0.154-0.003l0.522-0.008l0.561-0.008l0.105-0.002h0.004l0.666-0.01l0.302-0.004l0.358-0.005
		l0.655-0.011h0.047l0.602-0.01l0.44-0.006l0.2-0.004h0.004l0.635-0.01l0.193-0.003l0.441-0.007l0.578-0.009l0.051-0.001l0.623-0.01
		l0.331-0.006l0.287-0.005l0.613-0.01l0.091-0.002l0.516-0.009l0.461-0.008l0.141-0.002l0.597-0.011l0.225-0.004l0.367-0.007
		l0.583-0.011l0.017-0.004h0.003v0.004l0.084-0.002c-0.001-0.467-0.002-0.858-0.004-1.171c-0.004-0.735-0.011-1.476-0.02-2.22
		c-0.268-22.122-2.62-45.055-9.586-62.441c-6.918-17.265-18.402-29.046-36.954-29.046c-18.553,0-30.037,11.781-36.954,29.046
		C36.559,390.612,34.207,413.545,33.938,435.667 M146.682,438.309c3.75-0.291,6.582-0.684,8.474-1.235
		c1.558-0.453,2.345-0.916,2.345-1.419v-92.486c-0.543,0.52-1.221,0.924-2.12,1.232c-1.775,0.607-4.426,0.807-8.699,0.76V438.309z"
		/>
</g>
<g>
	<path d="M102.499,227.742c-0.375-0.375-0.953-0.573-1.731-0.593v0.001H60.906v-0.001c-0.778,0.02-1.356,0.218-1.731,0.593h-0.002
		c-0.374,0.374-0.571,0.951-0.592,1.731h0.002v0.273V247c0,3.683,1.507,7.031,3.935,9.459c2.427,2.427,5.776,3.934,9.459,3.934
		h17.721c3.682,0,7.031-1.507,9.459-3.934c2.427-2.428,3.934-5.776,3.934-9.459v-17.527h0.002
		C103.073,228.695,102.874,228.117,102.499,227.742 M100.78,226.16c1.051,0.025,1.859,0.319,2.421,0.881
		c0.561,0.562,0.855,1.369,0.88,2.42l0.002,0.012V247c0,3.956-1.618,7.553-4.225,10.16c-2.607,2.607-6.204,4.225-10.16,4.225H71.977
		c-3.957,0-7.554-1.618-10.161-4.225s-4.225-6.204-4.225-10.16v-17.254v-0.273l0.002-0.012c0.024-1.049,0.319-1.856,0.882-2.419
		l-0.001-0.001c0.562-0.562,1.369-0.856,2.42-0.881l0.012-0.002h39.862L100.78,226.16z"/>
</g>
<g>
	<path d="M56.346,106.657c2.069,0,3.944,0.839,5.3,2.196c1.357,1.356,2.196,3.231,2.196,5.3
		c0,2.07-0.839,3.944-2.196,5.301c-1.356,1.356-3.231,2.195-5.3,2.195c-2.07,0-3.944-0.839-5.301-2.195
		c-1.356-1.357-2.195-3.231-2.195-5.301c0-2.069,0.839-3.944,2.195-5.3C52.402,107.496,54.276,106.657,56.346,106.657"/>
</g>
<g>
	<path fill="none" d="M93.431,236.045l-11.103,16.999v0.002c-0.117,0.177-0.261,0.33-0.423,0.451v0.003c-0.313,0.234-0.692,0.352-1.068,0.354
		v0.001c-0.376,0-0.753-0.119-1.07-0.355v-0.003c-0.159-0.121-0.304-0.272-0.421-0.453l-11.125-17.032l-0.011-0.017
		c-0.123-0.189-0.21-0.394-0.262-0.605h4.198l8.691,13.308l8.691-13.308h4.198c-0.052,0.211-0.138,0.416-0.262,0.605l-0.031,0.049
		L93.431,236.045z"/>
</g>
<g>
	<path fill="none" d="M68.243,188.11l11.103-16.999v-0.002c0.117-0.177,0.261-0.33,0.423-0.451v-0.003c0.313-0.234,0.692-0.352,1.068-0.354
		V170.3c0.376,0,0.753,0.119,1.07,0.355v0.003c0.159,0.121,0.304,0.272,0.421,0.453l11.125,17.032l0.011,0.017
		c0.123,0.189,0.21,0.394,0.262,0.605h-4.198l-8.691-13.308l-8.691,13.308h-4.198c0.052-0.211,0.138-0.416,0.262-0.605l0.031-0.049
		L68.243,188.11z"/>
</g>
<path d="M102.499,196.536c-0.375,0.375-0.953,0.574-1.731,0.594v-0.002H60.906v0.002c-0.778-0.02-1.356-0.219-1.731-0.594h-0.002
	c-0.374-0.374-0.571-0.951-0.592-1.731h0.002v-0.273v-17.254c0-3.682,1.507-7.031,3.935-9.459c2.427-2.427,5.776-3.934,9.459-3.934
	h17.721c3.682,0,7.031,1.507,9.459,3.934c2.427,2.428,3.934,5.777,3.934,9.459v17.527h0.002
	C103.073,195.583,102.874,196.161,102.499,196.536 M100.78,198.118c1.051-0.025,1.859-0.319,2.421-0.881
	c0.561-0.562,0.855-1.369,0.88-2.42l0.002-0.012v-17.527c0-3.956-1.618-7.553-4.225-10.16c-2.607-2.607-6.204-4.225-10.16-4.225
	H71.977c-3.957,0-7.554,1.618-10.161,4.225c-2.607,2.607-4.225,6.204-4.225,10.16v17.254v0.273l0.002,0.012
	c0.024,1.049,0.319,1.856,0.882,2.419l-0.001,0.001c0.562,0.562,1.369,0.856,2.42,0.881l0.012,0.002h39.862L100.78,198.118z"/>
<path pulse:initial="true" d="M93.431,188.234l-11.104-16.999v-0.002c-0.116-0.177-0.26-0.33-0.423-0.451v-0.002
	c-0.313-0.235-0.692-0.352-1.068-0.354v-0.002c-0.375,0-0.752,0.119-1.069,0.356v0.002c-0.16,0.121-0.304,0.272-0.422,0.453
	l-11.124,17.033l-0.011,0.017c-0.123,0.188-0.21,0.393-0.262,0.604h4.197l8.691-13.308l8.692,13.308h4.198
	c-0.052-0.211-0.139-0.416-0.262-0.604l-0.031-0.049L93.431,188.234z M103.199,197.237c-0.563,0.563-1.37,0.857-2.419,0.882
	l-0.012,0.002H60.906l-0.012-0.002c-1.049-0.025-1.855-0.319-2.419-0.881v-0.001l-0.002-0.001c-0.561-0.563-0.856-1.37-0.88-2.418
	l-0.002-0.012v-0.273v-17.254c0-3.956,1.618-7.553,4.225-10.16c2.607-2.607,6.204-4.226,10.16-4.226h17.721
	c3.956,0,7.553,1.619,10.161,4.226c2.607,2.607,4.225,6.204,4.225,10.16v17.527l-0.002,0.012c-0.025,1.051-0.319,1.858-0.881,2.42
	L103.199,197.237z"/>
<path d="M93.431,236.045l-11.104,16.999v0.002c-0.116,0.177-0.26,0.33-0.423,0.451v0.002
	c-0.313,0.235-0.692,0.352-1.068,0.354v0.002c-0.375,0-0.752-0.119-1.069-0.356v-0.002c-0.16-0.121-0.304-0.272-0.422-0.453
	l-11.124-17.033l-0.011-0.017c-0.123-0.188-0.21-0.393-0.262-0.604h4.197l8.691,13.308l8.692-13.308h4.198
	c-0.052,0.211-0.139,0.416-0.262,0.604l-0.031,0.049L93.431,236.045z M103.199,227.042c-0.563-0.563-1.37-0.857-2.419-0.882
	l-0.012-0.002H60.906l-0.012,0.002c-1.049,0.025-1.855,0.319-2.419,0.881v0.001l-0.002,0.001c-0.561,0.562-0.856,1.37-0.88,2.418
	l-0.002,0.012v0.273V247c0,3.956,1.618,7.553,4.225,10.16c2.607,2.607,6.204,4.225,10.16,4.225h17.721
	c3.956,0,7.553-1.618,10.161-4.225c2.607-2.607,4.225-6.204,4.225-10.16v-17.527l-0.002-0.012
	C104.056,228.41,103.762,227.603,103.199,227.042L103.199,227.042z"/>
</svg>
