<svg height="960" viewBox="0 0 960 960" width="960" xmlns="http://www.w3.org/2000/svg"><g fill="none" fill-rule="evenodd" stroke="#000" stroke-linejoin="round"><path d="m241.57081 29.8570991c39.466459-5.8011013 77.458752 1.9873019 107.128933 23.2887676 40.56727-12.4570263 83.651362-19.1651423 128.300257-19.1651423 120.677009 0 229.930642 48.9719379 309.014297 128.1522456 79.07482 79.171461 127.985703 188.545239 127.985703 309.357392 0 11.299915-.428294 22.499702-1.269266 33.584001l-.165734 2.105637.093376.105331c13.19284 14.949728 19.985716 35.06345 19.716185 59.332626l-.011601.81051c-.393423 22.46919-6.940362 48.781912-19.419898 77.09517-22.929316 52.021451-66.091913 111.521232-124.425984 165.918633-58.334071 54.397402-120.699784 93.304362-174.193982 112.54899-29.114817 10.474104-55.820133 15.169611-78.262034 13.994705-25.41322-1.330465-45.778668-10.038943-60.002714-25.292365-.672313-.720967-1.328522-1.454199-1.968667-2.199553l-.430681-.508047-.199214-.000057c-118.067853-.937929-224.983694-48.752205-303.092029-125.771355l-2.382054-2.366833c-79.0748197-79.171461-127.985703-188.545239-127.985703-309.357393 0-60.251415 12.1707739-117.656325 34.1704479-169.889463-15.1132054-29.642957-18.9379171-65.317723-11.3899633-101.612308 7.8503708-37.748768 28.0253858-76.139928 59.9918094-108.1454475 35.020071-35.06284 77.686386-55.9430488 118.798516-61.9860444z" stroke-width="40"/><g stroke-linecap="round"><path d="m476.215782 43.4545929c-236.488594 0-428.200478 191.7118841-428.200478 428.2004781" stroke-width="20"/><path d="m776.438162 503.919568c27.658594-9.950225 53.02097-14.534858 74.354091-13.418 22.442053 1.174915 40.601424 8.602844 53.211994 22.126025s18.753672 32.156463 18.360245 54.625806c-.373985 21.359062-6.71664 46.339849-18.571993 73.236976-22.486621 51.017077-64.899553 109.302364-122.095405 162.638358-57.195852 53.335995-118.297735 91.579835-170.759124 110.452908-27.658595 9.950226-53.020971 14.534858-74.354091 13.418-22.442053-1.174914-40.601425-8.602844-53.211994-22.126024-12.61057-13.523181-18.753672-32.156463-18.360246-54.625806.373985-21.359062 6.71664-46.339849 18.571993-73.236976 22.486621-51.017077 64.899553-109.302364 122.095405-162.638359 57.195852-53.335994 118.297735-91.579835 170.759125-110.452908z" stroke-width="20"/><path d="m844.730705 571.220118c17.428312-.389231 30.985145 4.583163 39.970965 14.219275 8.985819 9.636112 13.000424 23.506778 11.396403 40.865484-1.429043 15.465102-7.378188 33.897137-17.498006 53.992028-18.975969 37.680522-52.726695 81.636783-96.902973 122.831828-44.176277 41.195046-90.379795 71.797323-129.292226 88.098607-20.751863 8.693418-39.55399 13.342317-55.081105 13.689089-17.428312.389231-30.985145-4.583163-39.970965-14.219275s-13.000425-23.506778-11.396404-40.865484c1.429044-15.465102 7.378189-33.897137 17.498007-53.992028 18.975968-37.680522 52.726695-81.636783 96.902973-122.831829 44.176277-41.195045 90.379794-71.797323 129.292225-88.098606 20.751864-8.693418 39.553991-13.342318 55.081106-13.689089z" stroke-width="20"/><path d="m75.751746 186.506673 41.504486 51.308421" stroke-width="20"/><path d="m96.402549 139.131301 48.793005 61.026446" stroke-width="20"/><path d="m129.200884 99.044448 50.007758 62.241198" stroke-width="20"/><path d="m172.931996 67.460867 46.363499 58.596939" stroke-width="20"/><path d="m221.522121 49.23957 39.074981 50.093667" stroke-width="20"/><path d="m272.541753 43.165804 29.356955 35.51663" stroke-width="20"/><path d="m465.713799 524.692759c171.762529 15.027274 319.962327-75.189767 331.013514-201.505401 11.051186-126.315635-119.2311-240.8967014-290.993629-255.9239756-171.76253-15.0272741-319.962328 75.1897676-331.013514 201.5054016-11.051186 126.315635 119.2311 240.896701 290.993629 255.923975z" stroke-width="20"/><path d="m507.641659 92.0078481c1.110415-.5785381 2.342093-.7818385 3.52877-.6310308 1.186677.1508076 2.328353.6557232 3.258762 1.4936172l150.887299 135.8839025c.485241.436992.895892.950266 1.21575 1.519574.811566 1.444481.960808 3.081166.546039 4.559622-.41477 1.478455-1.393551 2.798682-2.838033 3.610247l-292.236124 164.189429c-1.201391.674987-2.555451.897344-3.845398.7002s-2.515781-.813788-3.460722-1.816802l-143.086058-151.879638c-.378128-.401366-.699121-.852944-.953914-1.34198-.765564-1.46938-.863067-3.10996-.401835-4.574586.461233-1.464626 1.481201-2.753298 2.950582-3.518861z" stroke-width="20"/><path d="m476 464c26.722361-15.692992 44.389027-26.026326 53-31m53-33c24.705579-14.680541 41.038912-24.347208 49-29m57-35c20.672015-12.149414 34.338682-20.149414 41-24" stroke-width="40"/></g></g></svg>