<svg height="960" viewBox="0 0 960 960" width="960" xmlns="http://www.w3.org/2000/svg"><g fill="none" fill-rule="evenodd"><path d="m365.290459 20.9997134 358.845252 14.0564806c7.629356.2990135 14.474775 3.526502 19.471773 8.57354 5.093455 5.1444599 8.262208 12.1807649 8.388731 19.9326803l.008652 118.1277567c10.932036 27.114204 16.995133 56.961893 16.995133 88.309829 0 31.347695-6.063004 61.195167-16.994881 88.309205l-.005119 517.103889c0 6.30559-2.035993 12.239919-5.563383 17.079964-3.608231 4.95097-8.778021 8.755283-14.924733 10.642759l-14.01113 4.047198c-1.45857.420867-2.94757.72645-4.45324.914107l-310.939734 30.762076c-.771699.076323-1.546078.121655-2.321268.135904l-29.701907.004898c-.924806-.000016-1.849064-.044271-2.773494-.133377-22.24076-2.122145-44.472545-6.385956-66.693114-12.803313-20.286655-5.858837-34.980775-12.039926-44.327674-18.063502-8.129337-5.239081-13.101026-14.177974-13.285061-23.82337l-.005185-499.722061c-21.318688-25.297684-29.870275-44.738972-29.997067-57.421068l-.001879-23.03336-3.001131.000051c-10.769553 0-20.519553-4.365224-27.577164-11.422836-7.057612-7.057611-11.422836-16.807611-11.422836-27.577164s4.365224-20.519553 11.422836-27.577164c7.057611-7.057612 16.807611-11.422836 27.576825-11.422836l3.000042-.000051.000297-29.086828c0-8.363577 7.948286-26.500998 29.690603-53.669339l.309397-.386782.000001-78.7545615c.00152-5.6424821 1.638299-11.0189552 4.544826-15.5788627l.294872-.4532485c3.090502-4.6550779 7.523832-8.4186349 12.895712-10.6827822 13.939776-5.8762565 27.976391-9.9927788 42.101649-12.3780744 15.354285-2.5928383 36.167057-3.9768237 62.453399-4.0097573z" stroke="#000" stroke-linejoin="round" stroke-width="40"/><path d="m697 283c-2.669536 24.521181-10.518384 47.182762-22.242629 66.480153-.172105.283273-1.073081.789889-2.702928 1.519847l-67.054443-1.808369 4.615771-61.508576 65.417409-1.779327z" stroke="#000" stroke-linecap="round" stroke-linejoin="round" stroke-width="20"/><ellipse cx="566.593654" cy="264.890188" rx="148.123871" ry="162.43129" stroke="#000" stroke-linecap="round" stroke-linejoin="round" stroke-width="20"/><ellipse cx="556.84474" cy="264.890188" fill="#000" rx="18.367762" ry="21.398134"/><path d="m429.346441 285.556214c7.825998-2.451173 13.586688-10.774868 13.586688-20.666026 0-9.510805-5.326167-17.572379-12.69324-20.357448-1.787049-.675581-2.417879 41.50094-.893448 41.023474z" fill="#000"/><g stroke="#000" stroke-linejoin="round"><path d="m532 419c31.311082-13.164248 57.471473-38.906682 74-72m17-60c.659212-7.44811 1-15.056841 1-22.79096 0-7.187393-.29431-14.266498-.864982-21.20904m-16.135018-59c-16.52409-34.072152-43.098176-60.582634-75-74" stroke-linecap="round" stroke-width="20"/><ellipse cx="559.804834" cy="270.239722" rx="199.878025" ry="205.713879" stroke-linecap="round" stroke-width="20"/><path d="m224.354734 188.413789v146.663905c0 12.583742 9.726425 31.599265 29.179274 57.046571v-256.777608c-19.452849 27.14866-29.179274 44.837704-29.179274 53.067132z" stroke-linecap="round" stroke-width="20"/><path d="m359.92681 40.716326v878" stroke-linecap="round" stroke-width="20"/><path d="m302.91173 45.006729v860.584306" stroke-linecap="round" stroke-width="20"/><path d="m500.929742 726.04572 142.194299-10.328232c12.88595-.935966 24.090827 8.75141 25.026794 21.63736.040964.563977.061466 1.129254.061466 1.694717 0 14.177777-10.947735 25.949538-25.08826 26.97663l-142.194299 10.328232c-12.88595.935966-24.090827-8.75141-25.026793-21.63736-.040965-.563977-.061467-1.129254-.061467-1.694717 0-14.177777 10.947735-25.949538 25.08826-26.97663z" stroke-linecap="round" stroke-width="20"/><path d="m675.497961 180.695882c10.08623 17.138334 17.149878 36.36524 20.37018 57.62135l.163136 1.101263-5.517345.680639-15.616221 2.229716-65.025489 2.186627-4.588118-59.706573z" stroke-linecap="round" stroke-width="20"/></g></g></svg>