<svg height="960" viewBox="0 0 960 960" width="960" xmlns="http://www.w3.org/2000/svg"><g fill="none" fill-rule="evenodd"><path d="m384.374061 927.865707c-.01876 1.548768-.033351 3.091291-.041689 4.621325-.004169.664055-.006254 1.494644-.008338 2.489686l.191771.004163 1.202737.020817.325177.006245.887982.014572 1.144372.020817h.068788.008338l1.234004.020817.750408.014571.483596.006245h.008338l1.254849.020817.343936.006245.91925.014572 1.200653.018735.054196.002082h.01876l1.284031.020816.790013.012491.494019.006245 1.304876.020816h.010422l.364782.006245.940094.014572 1.254849.018735h.010422.068788l1.32572.020817.827533.01249.516948.006245 1.356988.020817.38771.006245.975531.014572 1.311129.018735h.010422l.064619.002081 1.375748.020817.867138.01249.529454.008327 1.404931.018735.410639.006245 1.006798.014572 1.365325.020817h.01876l.058365.002081 1.419522.020817.904659.01249.541961.008327 1.457042.020817.431484.008326 1.033896.014572 1.42369.020817h.016676l.054196.002082 1.469549.022898h.008338l.946348.014572.552383.008326 1.496647.022899.454414.008327h.010422l1.060993.016653 1.471634.022898h.025013.047943l1.519576.024981.977615.016653h.008338l.562806.008327 1.557096.02498.477343.008327 1.090176.018735 1.536252.02498h.025013l.041689.002081 1.561266.027062 1.025557.016654.571144.010408 1.607124.029144.502356.008326 1.11519.020817 1.594616.027062h.033352l.035436.002082 1.602954.029143 1.065163.020817.581566.010408 1.657151.031225.525285.010409h.008338l1.142288.022898 1.642559.031225h.008338.027098l1.688418.035389 1.106852.020817.589904.01249 1.707178.035388.550299.01249 1.167301.02498 1.709262.035389h.025014.01876l1.711347.03747 1.148541.02498.598242.014572 1.757205.039552.575313.01249 1.192315.027062 1.767627.041633h.087548.008338v.002082l1.709262.039552 1.19023.029143.60658.014572 1.807233.043715.600326.016654 1.215244.029143 1.775965.045797 1.840584-.047878 1.161048-.029144.72331-.016653 1.871851-.045797h.008337l.421063-.010409 1.432028-.035388 1.567519-.035389h.008338l.283487-.008326 1.840584-.041634.846293-.018735.983868-.022898 1.81974-.041634.137574-.002082 2.914084-.064532.554469-.010408 1.786387-.039552.54613-.010408 1.229836-.02498 1.630052-.035389h.008338l.127153-.002082 1.75512-.035388.93801-.018735.806689-.014572h.008338l1.732191-.035389.264727-.004163 1.459127-.027062 1.315298-.02498.396049-.008327 1.700925-.031225.648269-.01249 1.042233-.018735 1.677995-.029143.033352-.010409h.004169v.008327l1.634221-.027062 1.01722-.018735.639931-.010408 1.646729-.029144.377288-.006245 1.261102-.020817 1.371579-.022898.254305-.004163 1.613377-.027062.737901-.010409.867138-.014571 1.584195-.024981.118814-.004163h.008338l1.463295-.022898 1.086007-.016654.485681-.008326h.010422l1.559181-.022899.475259-.008327 1.075584-.014571 1.417438-.022899.120899-.002082 1.529998-.022898.812942-.01249.704549-.010408 1.496647-.022899.227207-.002082h.008338l1.26944-.018735 1.138119-.016653.348106-.006245 1.473717-.020817.558637-.008327.904659-.014571 1.44662-.020817.025013-.008327h.006254v.008327l1.415352-.020817.875476-.01249.554468-.008327 1.419522-.020816.321008-.006245 1.088091-.016654 1.169386-.016653.218869-.004164h.008338l1.388254-.020816.629509-.008327.746239-.010409 1.365326-.022898h.097969l1.254849-.020817.917165-.01249.416894-.008327h.008338l1.323636-.020816.402302-.006245.91925-.014572 1.204821-.018735.106308-.002082 1.298622-.020817.689959-.01249.598242-.010408 1.277778-.020817.189686-.004163 1.075585-.018735.960939-.016654.29391-.004163 1.244426-.022899.469005-.008326.764999-.014572 1.215244-.022898.035436-.008327h.006253v.008327l.175096-.004164c-.002085-.972143-.004169-1.786079-.008338-2.437644-.008338-1.530034-.022929-3.072557-.04169-4.621325-.558637-46.050874-5.461302-93.789989-19.981695-129.982037-14.420338-35.940166-38.358351-60.464411-77.029372-60.464411-38.673105 0-62.611117 24.524245-77.029371 60.464411-14.520394 36.192048-19.423059 83.931163-19.98378 129.982037" fill-rule="nonzero"/><g stroke="#000" stroke-linecap="round" stroke-linejoin="round"><path d="m618.507582 937.864005c-4.97979.362212-10.774607.647402-17.351098.882631-6.449339.231067-234.110592.283109-240.972656.047879-6.997553-.239393-13.138392-.530828-18.384994-.909693-8.781857-.63283-15.454233-1.52587-19.992117-2.833164-5.434204-1.563339-8.175277-3.890655-8.175277-7.210931v-197.886364-701.6606948-.1706975l.035436-.1998411c.408555-2.3585408 3.26219-4.0675982 8.552565-5.1209271 4.383633-.8701413 10.830888-1.4883996 19.343849-1.8547749h.085463.304332 276.398162.085463c8.512961.3663753 14.960216.9846336 19.343849 1.8547749 5.29246 1.0533289 8.14401 2.7623863 8.552565 5.1209271l.035436.1998411v.1706975 701.6586128 197.888446c0 3.305704-2.711891 5.626775-8.089814 7.190115-4.483687 1.30313-11.081023 2.19617-19.771164 2.833163z" stroke-width="40"/><path d="m623.929739 740.249739h-50.063852c-11.735388 0-21.353556-6.310433-32.468417-13.602781-14.870797-9.758042-32.481527-21.314077-61.403763-21.314077-28.924422 0-46.535152 11.556035-61.405949 21.314077-11.114861 7.292348-20.733029 13.602781-32.466232 13.602781h-49.744848" stroke-width="20"/><path d="m387.397836 921.954475c-.018176 1.500494-.032312 2.994938-.04039 4.477282-.004039.643357-.006059 1.448058-.008078 2.412085l.185793.004034 1.165249.020168.315042.00605.860305.014118 1.108703.020168h.066643.008078l1.195542.020168.727018.014117.468523.00605h.008078l1.215736.020168.333217.006051.890598.014117 1.163229.018151.052507.002017h.018175l1.24401.020168.765389.012101.47862.00605 1.264204.020168h.010098l.353411.006051.910793.014117 1.215736.018151h.010098.066643l1.284399.020168.80174.012101.500835.00605 1.314692.020168.375626.006051.945124.014117 1.270262.018151h.010098l.062604.002017 1.332867.020168.840111.012101.512951.008067 1.36114.018151.397841.006051.975416.014117 1.32277.020168h.018176l.056545.002017 1.375277.020168.876461.012101.525069.008067 1.411627.020168.418036.008067 1.00167.014118 1.379315.020167h.016156l.052507.002017 1.423744.022185h.008078l.916851.014118.535167.008067 1.449998.022184.44025.008068h.010097l1.027923.016134 1.425764.022185h.024234.046449l1.472212.024201.947143.016135h.008078l.545264.008067 1.508563.024201.462465.008067 1.056196.018152 1.488368.024201h.024234l.04039.002017 1.512602.026218.993592.016135.553342.010084 1.557031.028235.486698.008067 1.080431.020168 1.544914.026218h.032312l.034331.002017 1.552992.028235 1.031962.020168.56344.010084 1.605499.030252.508913.010084h.008077l1.106684.022185 1.591363.030251h.008078.026253l1.635791.034286 1.072353.020168.571517.012101 1.653967.034285.533147.012101 1.130917.024201 1.655987.034286h.024233.018176l1.658006.036302 1.112742.024202.579595.014117 1.702435.038319.557381.012101 1.155151.026218 1.712532.040336h.084819.008078v.002017l1.655987.038319 1.153132.028235.587673.014118 1.750902.042353.581615.016134 1.177366.028235 1.72061.044369 1.783215-.046386 1.124859-.028235.700765-.016134 1.813507-.04437h.008078l.407938-.010084 1.387394-.034285 1.51866-.034286h.008078l.274652-.008067 1.783214-.040336.819915-.018151.953202-.022185 1.76302-.040335.133287-.002017 2.823255-.062521.537185-.010084 1.730708-.038319.529108-.010084 1.191502-.024201 1.579246-.034286h.008078l.123189-.002017 1.700415-.034285.908773-.018151.781545-.014118h.008078l1.678201-.034285.256476-.004034 1.413647-.026218 1.274302-.024202.383704-.008067 1.647908-.030252.628063-.012101 1.009748-.018151 1.625694-.028235.032312-.010084h.004039v.008067l1.583284-.026218.985514-.018151.619985-.010084 1.595402-.028235.365529-.006051 1.221795-.020168 1.328828-.022184.246378-.004034 1.56309-.026218.714901-.010084.84011-.014118 1.534817-.024201.115111-.004034h.008078l1.417686-.022185 1.052157-.016134.470543-.008067h.010097l1.510583-.022185.460445-.008067 1.04206-.014118 1.373257-.022184.11713-.002017 1.48231-.022185.787603-.012101.68259-.010084 1.449998-.022184.220125-.002017h.008078l1.229873-.018151 1.102644-.016135.337256-.00605 1.427783-.020168.541225-.008067.876461-.014118 1.40153-.020168.024234-.008067h.006059v.008067l1.371237-.020168.848188-.0121.537186-.008067 1.375277-.020168.311002-.006051 1.054177-.016134 1.132937-.016134.212047-.004034h.008078l1.344984-.020168.609887-.008067.72298-.010084 1.322769-.022185h.094917l1.215736-.020168.888578-.012101.403899-.008067h.008078l1.28238-.020168.389763-.00605.890597-.014118 1.167269-.018151.102994-.002017 1.258146-.020168.668453-.0121.579595-.010084 1.237951-.020168.183774-.004034 1.042059-.018151.930988-.016134.284749-.004034 1.205639-.022185.454386-.008067.741155-.014117 1.177366-.022185.034331-.008067h.006059v.008067l.169638-.004034c-.00202-.941842-.004039-1.730409-.008078-2.361665-.008078-1.482344-.022215-2.976788-.04039-4.477282-.541225-44.615513-5.291079-90.866645-19.358885-125.930622-13.970871-34.819945-37.162758-58.579793-74.62844-58.579793-37.467702 0-60.659589 23.759848-74.62844 58.579793-14.067806 35.063977-18.81766 81.315109-19.360904 125.930622" stroke-width="20"/><path d="m523.463087 492.329154c2.18227.051747 3.859982.660283 5.026905 1.823539 1.164846 1.163255 1.7753 2.833625 1.82721 5.009037l.004153.024838v36.278266c0 8.188328-3.359576 15.633579-8.772686 21.029679-5.413111 5.3961-12.881833 8.745118-21.095974 8.745118h-36.795448c-8.216217 0-15.684939-3.349018-21.09805-8.745118s-8.772686-12.841351-8.772686-21.029679v-35.713196-.56507l.004153-.024838c.049833-2.171273.662364-3.841642 1.831363-5.006968l-.002076-.002069c1.166922-1.163256 2.842557-1.771792 5.024828-1.823539l.024916-.004139h82.768475z" stroke-width="20"/><path d="m523.463087 432.756823c2.18227-.051747 3.859982-.660283 5.026905-1.823538 1.164846-1.163256 1.7753-2.833625 1.82721-5.009038l.004153-.024838v-36.278266c0-8.188328-3.359576-15.633579-8.772686-21.029679-5.413111-5.3961-12.881833-8.745118-21.095974-8.745118h-36.795448c-8.216217 0-15.684939 3.349018-21.09805 8.745118s-8.772686 12.841351-8.772686 21.029679v35.713197.565069l.004153.024838c.049833 2.171273.662364 3.841642 1.831363 5.006968l-.002076.00207c1.166922 1.163255 2.842557 1.771791 5.024828 1.823538l.024916.004139h82.768475z" stroke-width="20"/><path d="m354.863305 20.9474276v918.0000004l250.579807-5.429966v-912.5700344" stroke-width="20"/></g></g></svg>