<svg height="960" viewBox="0 0 960 960" width="960" xmlns="http://www.w3.org/2000/svg"><g fill="none" fill-rule="evenodd" stroke="#000" stroke-linejoin="round"><path d="m124.09362 27.2153324c6.908924-6.0548991 16.116482-9.474382 25.978803-8.8561368l639.528971 48.4536102c9.254349.7011955 17.471714 4.8592837 23.425967 11.1505082 6.019219 6.3598681 9.722972 14.9004873 9.850786 24.253185l.000853 27.194501.286361.164823c2.68025 1.563105 5.137335 3.461384 7.315503 5.636308l.360436.365039c6.030535 6.194785 9.833608 14.54731 10.179649 23.759408l14.732759 620.660504c.219464 9.247685-3.081083 17.813557-8.719663 24.355937-5.700632 6.614378-13.79212 11.157895-23.0513 12.250132l-1.101591.114691.000342 17.920182c0 9.04563-3.353973 17.377107-8.939144 23.742586-5.648184 6.437294-13.579179 10.861628-22.630203 11.983757l-621.12034 68.2804-29.52701-5.989704c-8.254047-1.674375-15.366061-6.094538-20.462901-12.191561-5.159962-6.172531-8.252671-14.064233-8.376292-22.565299l-.003795-843.6093907c0-.9076056.034322-1.8148867.102894-2.7198982.741427-9.7853196 5.329122-18.3592689 12.168915-24.3535817z" stroke-width="40"/><g stroke-linecap="round" stroke-width="20"><path d="m821.878672 91.8633002c0-8.3707463-6.452072-15.3266587-14.799211-15.9548772l-625.856668-47.1029291c-8.811635-.6631772-16.492489 5.9424534-17.155666 14.7540887-.033383.4435684-.045122.8883359-.045122 1.3331435l7.155505 864.9115119c.073097 8.836254 7.295554 15.940196 16.131807 15.867657.536676 0 1.072788-.036438 1.606304-.094759l618.70171-67.632449c8.115302-.887112 14.261341-7.741607 14.261341-15.905252"/><path d="m259.342175 105.770744h-19.879292c-8.812867-.646604-16.481283 5.973461-17.127886 14.786328-.031899.434757-.042893.870636-.042893 1.306546l6.067787 714.992651c.074982 8.836238 7.298953 15.938639 16.13519 15.864825.521048 0 32.91953.055216 33.437662 0"/><path d="m244.638927 122.173274 21.412444 715.15149c.264458 8.832597 7.639078 15.778447 16.471676 15.513989.38001-.011378.759493-.036296 1.137727-.074708l551.710512-56.02914c8.316891-.844624 14.581732-7.949494 14.378711-16.306697l-15.064115-620.10283c-.20046-8.251748-6.645204-14.996732-14.879285-15.57246l-558.058841-39.01952c-8.815034-.616348-16.460681 6.030001-17.077029 14.845036-.03711.530754-.047723 1.063028-.0318 1.59484z"/></g></g></svg>