<?xml version="1.0" encoding="utf-8"?>
<!-- Generator: Adobe Illustrator 17.0.0, SVG Export Plug-In . SVG Version: 6.00 Build 0)  -->
<!DOCTYPE svg PUBLIC "-//W3C//DTD SVG 1.1//EN" "http://www.w3.org/Graphics/SVG/1.1/DTD/svg11.dtd">
<svg version="1.1" id="Layer_1" xmlns="http://www.w3.org/2000/svg" xmlns:xlink="http://www.w3.org/1999/xlink" x="0px" y="0px"
	 width="317.984px" height="581.199px" viewBox="0 0 317.984 581.199" enable-background="new 0 0 317.984 581.199"
	 xml:space="preserve">
<g>
	<path d="M300.732,0H17.252C7.739,0,0,7.739,0,17.253v546.694c0,9.513,7.739,17.253,17.252,17.253h283.479
		c9.513,0,17.253-7.74,17.253-17.253V17.253C317.984,7.739,310.244,0,300.732,0z M161.773,314.135
		c52.118,0,97.873-27.753,123.271-69.254v330.649H34.964V238.771C59.494,283.636,107.138,314.135,161.773,314.135z M161.773,311.301
		c-78.069,0-141.583-63.515-141.583-141.584S83.705,28.134,161.773,28.134c78.069,0,141.584,63.514,141.584,141.583
		S239.843,311.301,161.773,311.301z M161.773,25.299c-54.636,0-102.28,30.499-126.809,75.364V5.669h250.081v88.884
		C259.646,53.052,213.892,25.299,161.773,25.299z M5.669,563.946V17.253c0-6.387,5.196-11.583,11.583-11.583h14.877v100.466
		c-9.453,19.196-14.773,40.778-14.773,63.581s5.321,44.385,14.773,63.581v342.231H17.252
		C10.865,575.529,5.669,570.333,5.669,563.946z M312.315,563.946c0,6.387-5.196,11.583-11.583,11.583h-12.853V240.029
		c11.655-20.821,18.313-44.802,18.313-70.312s-6.657-49.491-18.313-70.312V5.669h12.853c6.387,0,11.583,5.196,11.583,11.583V563.946
		z"/>
	<path d="M101.404,482.521h40.577h39.584h40.577c9.842,0,17.848-8.006,17.848-17.848s-8.006-17.848-17.848-17.848h-40.577h-39.584
		h-40.577c-9.841,0-17.848,8.006-17.848,17.848S91.563,482.521,101.404,482.521z M222.143,449.659
		c8.278,0,15.014,6.735,15.014,15.014s-6.735,15.014-15.014,15.014h-40.577v-30.027H222.143z M178.731,449.659v30.027h-33.915
		v-30.027H178.731z M101.404,449.659h40.577v30.027h-40.577c-8.278,0-15.013-6.735-15.013-15.014S93.126,449.659,101.404,449.659z"
		/>
	<path d="M119.869,510.296c-0.613-0.251-1.292-0.392-1.954-0.464c-1.818-0.198-3.45,0.253-4.773,1.579
		c-0.253,0.254-0.469,0.545-0.722,0.842c-0.061-0.13-0.114-0.245-0.168-0.359c-0.285-0.6-0.684-1.107-1.273-1.43
		c-1.17-0.64-2.42-0.841-3.724-0.558c-1.499,0.326-2.585,1.264-3.491,2.448c-0.104,0.136-0.204,0.274-0.306,0.412
		c-0.026-0.012-0.052-0.024-0.078-0.036c0-0.822,0-1.644,0-2.486c-0.823,0-1.609,0-2.408,0c0,5.166,0,10.301,0,15.465
		c0.856,0,1.693,0,2.576,0c0-0.178,0-0.33,0-0.482c0-2.907-0.003-5.815,0.003-8.722c0.001-0.336,0.016-0.677,0.077-1.006
		c0.439-2.322,2.107-3.653,4.332-3.446c1.257,0.117,2.076,0.823,2.244,2.08c0.096,0.716,0.103,1.447,0.105,2.172
		c0.011,2.998,0.009,5.997-0.003,8.995c-0.001,0.337,0.086,0.463,0.435,0.445c0.518-0.026,1.038-0.006,1.557-0.007
		c0.555-0.001,0.556-0.001,0.556-0.541c0-2.596-0.002-5.192,0.002-7.788c0.001-0.727-0.028-1.458,0.045-2.178
		c0.142-1.407,0.867-2.418,2.21-2.935c0.796-0.306,1.628-0.33,2.455-0.202c1.048,0.162,1.728,0.833,1.919,1.876
		c0.093,0.507,0.144,1.029,0.146,1.545c0.013,3.245,0.007,6.489,0.007,9.734c0,0.149,0,0.299,0,0.454c0.87,0,1.68,0,2.485,0
		c0.016-0.071,0.032-0.108,0.032-0.146c0-3.932,0.033-7.866-0.019-11.798C122.115,512.183,121.394,510.921,119.869,510.296z"/>
	<path d="M176.123,510.094c-0.325-0.011-0.473,0.08-0.558,0.414c-0.748,2.948-1.516,5.892-2.28,8.836
		c-0.305,1.176-0.616,2.35-0.94,3.588c-0.049-0.163-0.083-0.26-0.107-0.361c-0.987-4.022-1.977-8.044-2.955-12.07
		c-0.068-0.281-0.188-0.377-0.471-0.37c-0.674,0.017-1.35,0.016-2.024,0c-0.276-0.006-0.374,0.095-0.436,0.361
		c-0.844,3.618-1.702,7.232-2.557,10.847c-0.117,0.494-0.239,0.986-0.359,1.478c-0.541-1.772-1.012-3.534-1.48-5.297
		c-0.624-2.352-1.252-4.703-1.867-7.057c-0.064-0.245-0.173-0.341-0.426-0.33c-0.388,0.016-0.778,0.004-1.168,0.004
		c-0.408,0-0.816,0-1.252,0c0.02,0.137,0.021,0.201,0.04,0.259c1.558,5.019,3.118,10.038,4.674,15.058
		c0.063,0.204,0.164,0.291,0.385,0.287c0.674-0.011,1.35-0.015,2.024,0.002c0.293,0.008,0.422-0.072,0.497-0.384
		c0.916-3.827,1.85-7.649,2.781-11.472c0.04-0.165,0.087-0.328,0.159-0.597c0.062,0.242,0.096,0.367,0.127,0.492
		c0.943,3.847,1.89,7.693,2.819,11.543c0.082,0.338,0.231,0.43,0.554,0.419c0.622-0.021,1.246-0.02,1.868-0.001
		c0.271,0.008,0.384-0.094,0.461-0.346c1.515-4.978,3.037-9.954,4.556-14.931c0.032-0.105,0.045-0.217,0.075-0.367
		C177.52,510.101,176.821,510.117,176.123,510.094z"/>
	<path d="M208.012,509.941c-2.271,0.412-3.865,1.754-4.876,3.788c-1.149,2.311-1.136,4.722-0.491,7.164
		c0.499,1.887,1.504,3.402,3.256,4.353c1.372,0.745,2.854,0.89,4.378,0.767c1.73-0.139,3.201-0.82,4.344-2.146
		c0.751-0.871,1.106-1.912,1.273-3.094c-0.721,0-1.406,0.018-2.089-0.008c-0.318-0.012-0.427,0.109-0.48,0.4
		c-0.14,0.776-0.556,1.379-1.192,1.846c-0.638,0.468-1.355,0.683-2.133,0.75c-3.019,0.257-5.203-1.722-5.103-5.008
		c0.19,0,0.356,0,0.522,0c3.426,0,6.851,0,10.277,0.001c0.234,0,0.467,0.043,0.461-0.334c-0.024-1.568-0.221-3.102-0.853-4.553
		C213.967,510.791,211.304,509.344,208.012,509.941z M204.945,516.408c-0.181-1.999,1.708-4.1,3.734-4.27
		c2.97-0.25,4.685,2.083,4.753,4.27C210.584,516.408,207.764,516.408,204.945,516.408z"/>
	<path d="M137.808,523.779c-0.786,0.165-1.086-0.025-1.211-0.821c-0.052-0.33-0.036-0.672-0.039-1.009
		c-0.026-2.621-0.035-5.241-0.077-7.861c-0.03-1.868-1.03-3.184-2.845-3.656c-0.794-0.207-1.636-0.312-2.457-0.317
		c-2.191-0.015-4.384,0.049-6.576,0.082c-0.078,0.001-0.164-0.011-0.23,0.019c-0.071,0.032-0.173,0.106-0.174,0.164
		c-0.012,0.682-0.008,1.364-0.008,2.04c0.624,0,1.192,0.003,1.761-0.001c1.867-0.011,3.735-0.072,5.6-0.021
		c1.573,0.044,2.478,1.044,2.503,2.555c0.011,0.66-0.254,1.152-0.859,1.385c-0.527,0.202-1.084,0.341-1.638,0.453
		c-1.496,0.302-3.013,0.511-4.493,0.876c-1.405,0.346-2.499,1.183-2.93,2.628c-0.181,0.607-0.219,1.28-0.197,1.918
		c0.053,1.563,0.81,2.699,2.249,3.35c0.794,0.359,1.642,0.47,2.501,0.483c2.039,0.032,3.873-0.487,5.307-2.038
		c0.04-0.042,0.091-0.074,0.138-0.111c0.027,0.029,0.04,0.038,0.042,0.048c0.011,0.076,0.02,0.154,0.029,0.231
		c0.08,0.729,0.475,1.241,1.145,1.488c0.808,0.298,1.65,0.316,2.484,0.079c0.108-0.03,0.258-0.17,0.262-0.264
		c0.025-0.567,0.013-1.136,0.013-1.762C137.955,523.748,137.881,523.764,137.808,523.779z M134.015,520.605
		c-0.086,1.128-0.713,1.957-1.672,2.522c-1.294,0.762-2.694,0.885-4.132,0.554c-0.846-0.195-1.459-0.713-1.594-1.608
		c-0.152-1.006,0.107-1.884,1.035-2.453c0.689-0.422,1.461-0.578,2.246-0.695c0.985-0.147,1.972-0.286,2.952-0.465
		c0.388-0.071,0.757-0.24,1.177-0.379C134.027,518.924,134.078,519.769,134.015,520.605z"/>
	<path d="M191.086,523.141c-0.062-0.302-0.083-0.616-0.086-0.926c-0.029-2.711-0.047-5.422-0.074-8.134
		c-0.018-1.783-0.904-3.063-2.616-3.577c-0.808-0.243-1.677-0.376-2.521-0.387c-2.088-0.027-4.177,0.045-6.265,0.081
		c-0.122,0.002-0.245,0.031-0.363,0.048c0,0.752,0,1.46,0,2.173c0.539,0,1.054,0.003,1.568-0.001
		c1.763-0.01,3.527-0.069,5.289-0.021c1.419,0.038,2.197,0.771,2.441,2.103c0.189,1.034-0.149,1.646-1.15,1.985
		c-0.426,0.145-0.876,0.227-1.32,0.311c-1.424,0.27-2.859,0.485-4.272,0.801c-1.143,0.255-2.114,0.84-2.769,1.862
		c-0.512,0.8-0.61,1.689-0.593,2.611c0.033,1.758,1.005,3.105,2.683,3.647c1.3,0.42,2.627,0.427,3.958,0.175
		c1.406-0.266,2.605-0.916,3.622-2.09c0.019,0.944,0.391,1.571,1.174,1.862c0.807,0.301,1.65,0.315,2.485,0.082
		c0.098-0.027,0.248-0.124,0.25-0.193c0.02-0.6,0.011-1.202,0.011-1.831c-0.206,0.037-0.343,0.068-0.482,0.087
		C191.464,523.891,191.206,523.726,191.086,523.141z M188.439,520.739c-0.086,0.985-0.648,1.742-1.471,2.273
		c-1.365,0.88-2.857,1.028-4.405,0.641c-0.77-0.193-1.329-0.683-1.482-1.485c-0.159-0.835-0.049-1.635,0.631-2.25
		c0.739-0.67,1.672-0.842,2.611-0.99c0.997-0.156,1.998-0.29,2.991-0.472c0.387-0.071,0.754-0.245,1.141-0.375
		C188.455,518.962,188.516,519.856,188.439,520.739z"/>
	<path d="M96.958,517.837c-0.223-0.102-0.454-0.197-0.69-0.259c-1.04-0.27-2.082-0.531-3.125-0.784
		c-0.944-0.23-1.896-0.425-2.734-0.961c-0.642-0.411-0.858-0.998-0.796-1.733c0.061-0.711,0.508-1.117,1.118-1.297
		c0.614-0.181,1.265-0.317,1.901-0.324c1.829-0.021,3.659,0.033,5.488,0.057c0.163,0.003,0.327,0.001,0.49,0.001
		c0-0.786,0-1.516,0-2.249c-0.084-0.012-0.134-0.025-0.185-0.025c-2.18-0.004-4.361-0.037-6.539,0.004
		c-1.126,0.022-2.201,0.343-3.164,0.958c-0.752,0.48-1.395,1.094-1.606,1.979c-0.56,2.343,0.075,3.896,2.234,4.883
		c0.177,0.081,0.354,0.169,0.54,0.218c1.014,0.265,2.029,0.524,3.046,0.774c1.031,0.254,2.073,0.472,2.993,1.044
		c0.511,0.318,0.801,0.759,0.823,1.369c0.036,0.974-0.376,1.66-1.301,1.983c-1.491,0.521-3.008,0.52-4.5,0.002
		c-0.853-0.296-1.456-0.886-1.703-1.784c-0.064-0.234-0.093-0.478-0.141-0.731c-0.824,0-1.634,0-2.441,0
		c-0.018,0.063-0.034,0.099-0.038,0.135c-0.005,0.051-0.005,0.104-0.001,0.155c0.173,1.976,1.093,3.438,2.963,4.206
		c1.538,0.632,3.153,0.686,4.783,0.517c1.092-0.113,2.147-0.361,3.086-0.966c1.518-0.978,2.136-2.394,1.95-4.158
		C99.251,519.33,98.269,518.439,96.958,517.837z"/>
	<path d="M228.097,517.934c-0.295-0.133-0.592-0.273-0.902-0.356c-1.025-0.273-2.055-0.53-3.087-0.779
		c-0.982-0.237-1.957-0.463-2.839-1.009c-0.944-0.585-1.112-2.499,0.305-2.946c0.634-0.2,1.311-0.353,1.97-0.363
		c1.829-0.028,3.659,0.031,5.489,0.055c0.165,0.003,0.329,0.001,0.518,0.001c0-0.768,0-1.49,0-2.25
		c-0.101-0.012-0.164-0.025-0.227-0.025c-2.168-0.003-4.335-0.036-6.502,0.004c-1.086,0.02-2.125,0.326-3.065,0.897
		c-0.811,0.492-1.5,1.134-1.715,2.078c-0.524,2.303,0.057,3.821,2.209,4.832c0.129,0.061,0.258,0.126,0.395,0.162
		c1.075,0.285,2.149,0.573,3.228,0.842c1.043,0.261,2.099,0.477,3.025,1.068c0.415,0.265,0.687,0.621,0.764,1.117
		c0.164,1.058-0.287,1.858-1.316,2.227c-1.254,0.451-2.545,0.457-3.833,0.173c-1.331-0.294-2.253-1.016-2.426-2.472
		c-0.012-0.096-0.188-0.244-0.292-0.247c-0.648-0.023-1.297-0.005-1.946-0.015c-0.247-0.004-0.306,0.092-0.285,0.329
		c0.199,2.305,1.47,3.842,3.704,4.454c1.528,0.418,3.073,0.42,4.627,0.181c1.081-0.166,2.076-0.528,2.952-1.205
		C230.875,523.124,231.191,519.327,228.097,517.934z"/>
	<path d="M152.292,505.667c-0.851,0-1.66,0-2.514,0c0,0.163,0,0.302,0.001,0.44c0,5.41,0,10.82,0.001,16.23
		c0,0.246-0.003,0.493,0.013,0.739c0.099,1.49,0.658,2.246,1.87,2.512c0.289,0.064,0.589,0.105,0.885,0.11
		c1.18,0.023,2.36,0.03,3.541,0.04c0.127,0.001,0.254-0.016,0.385-0.024c0-0.749,0-1.466,0-2.218c-0.42,0-0.807,0.009-1.194-0.001
		c-0.751-0.02-1.502-0.031-2.251-0.082c-0.371-0.025-0.617-0.258-0.672-0.644c-0.028-0.191-0.052-0.385-0.053-0.578
		c-0.003-3.126-0.002-6.253-0.002-9.38c0-0.136,0-0.272,0-0.45c1.432,0,2.801,0,4.185,0c0-0.751,0-1.459,0-2.233
		c-1.398,0-2.776,0-4.194,0C152.292,508.604,152.292,507.144,152.292,505.667z"/>
	<path d="M202.738,510.151c-2.493-0.094-4.333,0.95-5.674,3.125c0-1.1,0-2.098,0-3.108c-0.809,0-1.567,0-2.328,0
		c0,5.198,0,10.365,0,15.546c0.832,0,1.632,0,2.492,0c0-0.203,0-0.358,0-0.512c0-1.985-0.016-3.97,0.008-5.954
		c0.01-0.892,0.063-1.788,0.162-2.675c0.231-2.074,1.497-3.497,3.484-3.922c0.602-0.128,1.225-0.161,1.856-0.24
		C202.738,511.671,202.738,510.927,202.738,510.151z"/>
	<path d="M145.797,510.501c-1.337,0.531-2.401,1.406-3.16,2.669c0-0.991,0-1.982,0-2.997c-0.806,0-1.573,0-2.352,0
		c0,5.196,0,10.355,0,15.566c0.708,0,1.393-0.017,2.078,0.007c0.352,0.013,0.433-0.116,0.43-0.449
		c-0.014-1.999-0.024-3.997,0.001-5.996c0.011-0.918,0.063-1.841,0.167-2.753c0.246-2.162,1.586-3.563,3.735-3.941
		c0.529-0.093,1.069-0.13,1.603-0.193c0-0.758,0-1.491,0-2.252C147.423,510.104,146.587,510.188,145.797,510.501z"/>
	<path d="M231.517,505.425c-1.179,0.005-2.092,0.903-2.087,2.051c0.005,1.156,0.912,2.037,2.096,2.037
		c1.182-0.001,2.083-0.887,2.083-2.047C233.607,506.312,232.693,505.42,231.517,505.425z M231.521,509.043
		c-0.879-0.01-1.52-0.675-1.52-1.575c0-0.901,0.651-1.574,1.519-1.572c0.868,0.003,1.514,0.675,1.515,1.577
		C233.037,508.381,232.389,509.053,231.521,509.043z"/>
	<path d="M232.392,506.853c-0.052-0.319-0.353-0.418-0.659-0.424c-0.245-0.004-0.491,0.01-0.737,0.008
		c-0.21-0.001-0.3,0.089-0.297,0.306c0.009,0.505-0.011,1.01,0.014,1.514c0.005,0.101,0.143,0.252,0.247,0.281
		c0.224,0.062,0.285-0.101,0.278-0.298c-0.005-0.151-0.001-0.302-0.001-0.472c0.377-0.055,0.565,0.065,0.605,0.36
		c0.052,0.391,0.252,0.508,0.67,0.363c-0.117-0.335-0.233-0.666-0.307-0.878C232.287,507.305,232.426,507.065,232.392,506.853z
		 M231.369,507.435c-0.036-0.044-0.071-0.088-0.107-0.132c0.042-0.176-0.168-0.476,0.212-0.481c0.128-0.002,0.258,0.173,0.387,0.266
		C231.698,507.204,231.533,507.32,231.369,507.435z"/>
	<path d="M249.958,81.585c-23.655-23.537-54.972-36.5-88.183-36.5c-33.212,0-64.531,12.963-88.187,36.502
		c-23.538,23.539-36.502,54.818-36.502,88.075c0,33.329,12.964,64.646,36.504,88.188c23.654,23.537,54.973,36.5,88.185,36.5
		c33.211,0,64.529-12.963,88.185-36.502c23.54-23.539,36.502-54.857,36.502-88.186C286.462,136.405,273.499,105.126,249.958,81.585z
		 M246.083,253.973c-22.482,22.483-52.424,34.864-84.31,34.864c-31.886,0-61.828-12.381-84.309-34.862
		c-22.484-22.598-34.867-52.541-34.867-84.314c0-31.772,12.383-61.715,34.862-84.309c22.598-22.484,52.54-34.867,84.313-34.867
		s61.715,12.383,84.31,34.862c22.483,22.598,34.866,52.542,34.866,84.314C280.947,201.434,268.564,231.376,246.083,253.973z"/>
	<path d="M241.481,89.963c-21.259-21.258-49.561-32.965-79.694-32.965c-30.133,0-58.436,11.708-79.694,32.965
		c-5.728,5.727-10.678,11.865-15.106,18.731v-0.192l-2.11,3.574c-0.105,0.209-0.196,0.39-0.375,0.569l-0.296,0.661
		c-0.08,0.159-0.19,0.377-0.258,0.445l-0.358,0.693l-0.443,0.553l-0.262,0.616c-0.052,0.104-0.13,0.234-0.208,0.364
		c-0.088,0.146-0.176,0.293-0.234,0.41l-0.528,1.056l-0.07,0.07l-0.114,0.224l-0.113-0.002l-0.083,0.247
		c-0.104,0.312-0.209,0.52-0.313,0.728l-0.241,0.489c-0.103,0.308-0.205,0.512-0.3,0.705l-0.345,0.576l-0.865,1.954l-0.221,0.333
		l-0.048,0.104c-0.103,0.307-0.209,0.624-0.285,0.78l-0.221,0.333l-0.041,0.084c-0.053,0.157-0.105,0.288-0.158,0.418
		c-0.059,0.146-0.117,0.292-0.168,0.447l-0.209,0.526l-0.345,0.691l-0.561,1.347l-0.11,0.332l-0.018,0.142
		c-0.024,0.052-0.048,0.108-0.074,0.167c-0.081,0.186-0.173,0.396-0.31,0.602l-0.152,0.417c-0.053,0.159-0.106,0.291-0.159,0.422
		c-0.058,0.145-0.116,0.289-0.174,0.463l-0.11,0.332l-0.019,0.165c-0.046,0.134-0.093,0.25-0.14,0.367
		c-0.049,0.123-0.098,0.245-0.146,0.384l-0.691,1.741c-0.057,0.169-0.088,0.338-0.117,0.495c-0.021,0.114-0.041,0.224-0.067,0.3
		l-0.123,0.122l-0.56,1.916c-0.073,0.146-0.108,0.284-0.138,0.406c-0.025,0.098-0.046,0.183-0.103,0.305l-0.451,1.465l-0.084,0.371
		c-0.074,0.149-0.243,0.535-0.257,0.982l-0.096,0.287c-0.11,0.333-0.225,0.676-0.236,1.042l-0.099,0.299
		c-1.686,6.181-2.774,12.318-3.332,18.792l0.001,0.086c-0.225,3.256-0.333,6.538-0.323,9.754c0,4.635,0.167,8.022,0.553,11.286
		v1.031l0.111,0.111c0.002,0.292,0.016,0.591,0.11,0.904v0.389l0.019,0.223c0.092,0.277,0.092,0.572,0.092,0.883l0.111,0.39v0.053
		c0,0.186,0.029,0.371,0.06,0.556c0.024,0.146,0.05,0.293,0.05,0.44l0.115,0.493l0.106,0.725v0.333l0.019,0.223
		c0.05,0.148,0.073,0.297,0.098,0.446c0.027,0.165,0.056,0.33,0.106,0.495l0.004,0.336c1.961,11.333,5.658,22.312,10.988,32.632
		l0.101,0.195l0.086-0.001c0.044,0.099,0.094,0.199,0.144,0.297c0.075,0.151,0.152,0.301,0.202,0.452l0.241,0.489
		c0.048,0.096,0.113,0.193,0.183,0.295c0.092,0.134,0.187,0.271,0.26,0.479l0.235,0.467l0.607,0.954l0.055,0.056
		c0.065,0.166,0.149,0.305,0.224,0.429c0.078,0.131,0.146,0.244,0.189,0.373l0.203,0.328v0.151l0.104,0.104
		c0.179,0.179,0.27,0.358,0.388,0.593l2.098,3.55v-0.193c4.428,6.866,9.378,13.003,15.106,18.731
		c21.33,21.33,49.632,33.076,79.694,33.076c30.063,0,58.364-11.747,79.694-33.076c21.258-21.258,32.966-49.561,32.966-79.694
		C274.447,139.524,262.739,111.221,241.481,89.963z M271.357,182.962c-0.896,7.491-2.549,14.776-4.916,21.661
		c-2.101,6.197-4.657,12.06-7.607,17.448v-39.109H271.357z M64.603,182.962v39.095c-6.645-12.247-10.819-25.391-12.415-39.095
		H64.603z M52.074,158.022c1.491-14.305,5.705-28.003,12.53-40.74v40.74H52.074z M258.833,158.022v-40.744
		c3.167,5.887,5.798,12.001,7.827,18.195c2.431,7.397,4.05,14.981,4.814,22.549H258.833z M51.895,180.592
		c-0.362-4.174-0.523-7.558-0.523-10.931c0-3.175,0.227-6.585,0.419-9.382h15.182V113.11c4.825-7.95,10.448-15.158,16.715-21.425
		c20.794-20.91,48.525-32.426,78.085-32.426c29.444,0,57.177,11.516,78.087,32.426c6.435,6.436,12.058,13.643,16.714,21.423v47.171
		h15.183c0.193,2.794,0.42,6.201,0.42,9.382c0,3.381-0.162,6.765-0.523,10.931l-15.08-0.001v45.73
		c-4.652,7.668-10.276,14.876-16.714,21.424c-20.953,20.84-48.686,32.317-78.087,32.317c-29.515,0-57.247-11.477-78.084-32.314
		c-6.323-6.432-11.947-13.678-16.716-21.537v-45.62H51.895z"/>
	<circle cx="105.012" cy="169.661" r="16.043"/>
	<circle cx="218.535" cy="169.661" r="16.043"/>
</g>
</svg>
