<svg height="960" viewBox="0 0 960 960" width="960" xmlns="http://www.w3.org/2000/svg"><g fill="none" fill-rule="evenodd"><g stroke="#000" stroke-linecap="round" stroke-linejoin="round"><path d="m241.105346 55.4101862 1.442141.1625335 194.233664 23.7600231c41.690821 5.1026874 73.323549 44.0504972 73.964168 90.7615022l.009905 1.417834.061152 321.48802-.061152 323.487822-.009905 1.417834c-.634213 46.243895-31.643792 84.879082-72.716482 90.598294l-1.247686.163208-194.233664 23.760023-1.442141.162534c-47.057789 4.851735-88.419661-35.099251-90.924991-87.838137l-.063991-1.602029-.299988-348.149747v-1.999802-.000198l.299988-348.149549c1.716965-52.9939606 42.62543-93.5234033 89.564766-89.5735074z" stroke-width="20"/><path d="m217.251967 55.2388695 213.736502 15.3628729c46.351348 3.3312724 82.47852 43.6118326 83.924552 93.5543146v659.858176c-1.431572 49.443057-36.854129 89.416465-82.537103 93.443319l-1.387449.110995-213.736502 15.362873c-5.188853.371134-13.830287-.764289-25.924303-3.406269-77.045463-22.971533-115.8319676-34.54578-116.3595148-34.72274-3.8957741-2.652872-7.6123254-5.582348-11.035454-8.849963l-.7289947-.705401-.0172152-.006894c-16.1364636-15.829096-26.447774-38.284033-26.8154845-63.347362l-.0080949-.76029v-654.094713c.1680905-25.369308 10.5241212-48.118666 26.8235794-64.107652l.0172152-.006893c3.6221018-3.5531082 7.590405-6.7130013 11.7644487-9.5553645l4.7098798-1.5760381 4.63379-1.5428358 4.5576999-1.5096334 4.4816101-1.476431 4.4055201-1.4432287 4.3294299-1.4100263 4.253341-1.3768239 4.17725-1.3436216 4.10116-1.3104192 4.025071-1.2772168 3.94898-1.2440145 3.872891-1.2108121c.639141-.1990351 1.275111-.3966869 1.907911-.5929552l3.758756-1.1610085c.620118-.1907346 1.237066-.3800857 1.850844-.5680534l3.644621-1.111205 3.56853-1.0780027 3.492441-1.0448002c.575733-.1713666 1.148295-.3413496 1.717687-.5099493l3.378306-.9949967c.55671-.163066 1.11025-.3247485 1.660619-.4850475l3.264171-.9451932 3.188081-.9119908 3.111991-.8787885c.512325-.1436979 1.021479-.2860123 1.527462-.4269433l2.997856-.8289849c.493302-.1353973.983434-.2694112 1.470395-.4020416l2.883721-.7791814c.948559-.2541934 1.884436-.502853 2.807632-.745979l2.731541-.7127766c.448916-.1160292.894662-.2306751 1.337237-.3439374l2.617407-.6629731c.429893-.1077287.856616-.2140739 1.280169-.3190357l2.503272-.6131695c16.434844-3.9771224 27.797026-5.7407538 34.086545-5.2908941z" stroke-width="40"/><path d="m749.157759 88.1166246 67.683328 7.6048459c32.510278 3.6528294 57.239679 30.8985615 57.734873 63.6096625v655.526807c-.490242 32.38399-24.732431 59.411372-56.761916 63.493018l-.972957.116645-67.683328 7.604846c-29.341344 3.29677-58.995726-2.139811-85.250254-15.617248l-.854916-.442331-19.025877-9.921408c-21.304694-11.109741-34.725006-33.053872-34.94275-57.040855l-.002829-.727495v-630.457151c-.04974-24.270057 13.425687-46.546389 34.945579-57.76835l19.025877-9.921408c26.464746-13.8005491 56.444899-19.3921833 86.10517-16.0595784z" stroke-width="40"/><path d="m746 97.6445653 71 7.2734297c32.032515 3.281497 58 30.511785 58 60.820551v647.192257c0 30.308766-25.967485 57.539054-58 60.82055l-71 7.27343c-32.032515 3.281497-58-19.872068-58-51.714933v-679.950351c0-31.842866 25.967485-54.9964302 58-51.7149337z" stroke-width="20"/><path d="m127.988964 494.085145h382.827412" stroke-width="40"/><path d="m668.504501 494.085145 206.071459-4.750471" stroke-width="40"/></g><ellipse cx="214.4" cy="413" fill="#000" rx="20.4" ry="24"/></g></svg>