<svg height="960" viewBox="0 0 960 960" width="960" xmlns="http://www.w3.org/2000/svg"><g fill="none" fill-rule="evenodd"><path d="m393.279417 928.928385c-.016961 1.40025-.030153 2.794853-.037691 4.178164-.00377.600376-.005654 1.351316-.007539 2.250939l.173381.003764 1.087401.018821.293994.005646.80283.013174 1.034633.018821h.062191.007539l1.115669.01882.678448.013175.437222.005646h.007538l1.134516.01882.310955.005647.831099.013174 1.085516.016939.048999.001882h.016961l1.1609.01882.714254.011292.446645.005647 1.179746.01882h.009422l.329801.005646.849945.013175 1.134515.016938h.009423.062191l1.198591.018821.748177.011292.467376.005646 1.226859.018821.350532.005646.881982.013174 1.185399.016939h.009423l.058422.001882 1.243821.018821.783984.011292.478682.007528 1.270205.016939.371262.005646.910251.013174 1.234398.018821h.016961l.052768.001882 1.283397.01882.817907.011293.48999.007528 1.317319.01882.390108.007529.93475.013174 1.287166.018821h.015077l.048999.001882 1.328627.020702h.007538l.855598.013175.499413.007528 1.353127.020703.410837.007528h.009423l.95925.015056 1.330512.020703h.022615.043345l1.373857.022584.883866.015057h.007539l.508835.007528 1.40778.022585.431568.007528.985634.016939 1.388933.022584h.022615l.037692.001882 1.411548.024467.927212.015056.516374.009411 1.453009.026349.454183.007528 1.008249.01882 1.441701.024467h.030154l.032037.001882 1.44924.026349.963019.01882.525797.009411 1.498239.028231.474914.00941h.007538l1.032748.020702 1.485047.028231h.007538.0245l1.526507.031995 1.000711.018821.533335.011292 1.543469.031995.497528.011292 1.055364.022585 1.545353.031995h.022615.016961l1.547238.033877 1.038402.022585.540874.013174 1.588698.035759.520143.011292 1.077979.024467 1.598121.037641h.079152.007539v.001882l1.545353.035759 1.076093.026349.548412.013175 1.633929.039523.542758.015056 1.098709.026349 1.605659.041405 1.664082-.043287 1.04971-.026349.653948-.015056 1.69235-.041405h.007538l.380685-.009411 1.294705-.031995 1.417202-.031995h.007538l.256302-.007528 1.664082-.037641.765138-.016939.889521-.020702 1.645236-.037641.124382-.001882 2.634639-.058344.501297-.00941 1.615083-.035759.493759-.009411 1.111901-.022584 1.473739-.031995h.007538l.11496-.001882 1.586814-.031995.848059-.016939.729332-.013174h.007538l1.566084-.031995.239341-.003764 1.319204-.024467 1.189168-.022585.35807-.007528 1.537815-.028231.586103-.011292.942289-.016939 1.517085-.026348.030153-.009411h.003769v.007529l1.477509-.024467.919673-.016939.578565-.00941 1.488816-.026349.341109-.005646 1.140169-.01882 1.240052-.020703.229918-.003764 1.458663-.024467.66714-.00941.783984-.013175 1.432279-.022584.107421-.003764h.007538l1.322974-.020703.981864-.015056.439107-.007529h.009423l1.409663-.020702.429684-.007528.972442-.013175 1.281512-.020702.109306-.001882 1.383279-.020703.734986-.011292.636987-.009411 1.353126-.020702.205419-.001882h.007538l1.147708-.016939 1.028979-.015056.314724-.005647 1.332396-.01882.505067-.007528.817907-.013175 1.307896-.01882.022615-.007528h.005654v.007528l1.279628-.018821.791522-.011292.501298-.007528 1.283397-.018821.290225-.005646.983749-.015057 1.057248-.015056.19788-.003764h.007539l1.255128-.018821.569142-.007528.674679-.00941 1.234398-.020703h.088575l1.134516-.01882.829214-.011293.376915-.007528h.007538l1.196707-.01882.363723-.005647.831099-.013174 1.089285-.016939.096114-.001882 1.174091-.01882.623795-.011292.540874-.009411 1.155246-.01882.171496-.003764.972442-.016939.86879-.015056.265726-.003764 1.125092-.020703.42403-.007528.69164-.013175 1.098709-.020702.032037-.007529h.005654v.007529l.158305-.003764c-.001885-.878921-.00377-1.614804-.007539-2.203888-.007538-1.383311-.02073-2.777914-.037691-4.178164-.505067-41.634841-4.937592-84.796029-18.065557-117.517453-13.037505-32.493695-34.67999-54.666195-69.642666-54.666195-34.96456 0-56.607045 22.1725-69.642665 54.666195-13.127965 32.721424-17.560491 75.882612-18.067442 117.517453" fill-rule="nonzero"/><path d="m604.960781 937.864398c-4.502255.362081-9.741379.647167-15.68722.882311-5.830882.230983-211.660634.283006-217.864662.047861-6.326526-.239306-11.87849-.530635-16.621971-.909363-7.939724-.6326-13.972255-1.525316-18.07498-2.832135-4.913093-1.562773-7.391312-3.889244-7.391312-7.208315v-197.814562-701.4061009-.1706356l.032038-.1997686c.369377-2.357685 2.949363-4.0661223 7.73242-5.119069 3.963266-.8698256 9.792263-1.4878595 17.488877-1.8541018h.077267.275149 249.893051.077267c7.696614.3662423 13.525611.9842762 17.488877 1.8541018 4.784941 1.0529467 7.363043 2.761384 7.73242 5.119069l.032038.1997686v.1706356 701.4040199 197.816643c0 3.304505-2.451835 5.624733-7.314044 7.187506-4.053726 1.302657-10.018413 2.195373-17.875215 2.832135z" stroke="#000" stroke-linecap="round" stroke-linejoin="round" stroke-width="40"/><path d="m609.862982 759.303789h-45.262995c-10.610027 0-19.305864-5.705297-29.354869-12.298347-13.444767-8.822298-29.366722-19.270171-55.51547-19.270171-26.150723 0-42.072678 10.447873-55.517445 19.270171-10.049005 6.59305-18.744842 12.298347-29.352893 12.298347h-44.974583" stroke="#000" stroke-linecap="round" stroke-linejoin="round" stroke-width="20"/><path d="m396.013228 923.584008c-.016433 1.356605-.029213 2.70774-.036517 4.047935-.003651.581663-.005477 1.309197-.007303 2.180779l.167977.003647 1.053508.018234.28483.00547.777807.012764 1.002384.018234h.060253.007303l1.080895.018234.657301.012764.423595.00547h.007303l1.099154.018234.301263.00547.805194.012764 1.051682.01641.047471.001824h.016433l1.124715.018233.691992.010941.432724.00547 1.142974.018234h.009129l.319521.00547.823453.012764 1.099153.01641h.009129.060253l1.161232.018234.724857.010941.452808.00547 1.18862.018234.339605.00547.854492.012764 1.148451.01641h.009129l.056601.001824 1.205052.018234.759549.01094.463762.007294 1.230614.01641.35969.00547.881879.012764 1.195923.018234h.016433l.051123.001823 1.243395.018234.792413.010941.474717.007293 1.27626.018234.377949.007294.905615.012764 1.247046.018234h.014607l.047472.001823 1.287214.020057h.007304l.82893.012764.483846.007294 1.310951.020057.398033.007294h.009129l.929351.014587 1.28904.020057h.02191.041995l1.331035.021881.856317.014587h.007303l.492976.007293 1.3639.021881.418117.007294.954913.01641 1.345641.021881h.02191l.036517.001823 1.367552.023705.898311.014587.50028.009117 1.40772.025527.440026.007294.976823.018234 1.396765.023704h.029213l.03104.001823 1.404068.025528.933003.018234.509408.009117 1.45154.027351.460111.009117h.007304l1.000558.020057 1.438759.027351h.007304.023736l1.478927.030997.96952.018234.516711.010941 1.495361.030997.482021.010941 1.022468.021881 1.497186.030997h.02191.016433l1.499012.032821 1.006036.021881.524015.012764 1.53918.034644.503931.010941 1.044379.023704 1.548309.036468h.076686.007303v.001823l1.497186.034645 1.042553.025527.531318.012764 1.583001.038291.525841.014587 1.064463.025528 1.555612.040114 1.612214-.041938 1.016991-.025527.633566-.014587 1.639601-.040115h.007303l.368819-.009117 1.25435-.030998 1.373029-.030997h.007304l.248314-.007294 1.612213-.036468.74129-.01641.861795-.020058 1.593956-.036468.120505-.001823 2.552519-.056525.485673-.009117 1.564742-.034645.478369-.009117 1.077244-.02188 1.427804-.030998h.007304l.111376-.001823 1.537354-.030998.821627-.016411.706599-.012763h.007303l1.51727-.030998.231881-.003647 1.278086-.023704 1.152103-.021881.346909-.007293 1.489883-.027351.567835-.010941.912918-.01641 1.469799-.025528.029213-.009117h.003652v.007294l1.431456-.023704.891008-.016411.560532-.009117 1.442411-.025527.330477-.00547 1.104631-.018234 1.201401-.020058.222752-.003646 1.413197-.023705.646346-.009117.759549-.012763 1.387635-.021881.104073-.003647h.007303l1.281738-.020057.951261-.014587.42542-.007294h.009129l1.365726-.020057.416291-.007294.942131-.012764 1.241569-.020057.105899-.001823 1.340164-.020058.712076-.01094.617133-.009117 1.310951-.020057.199016-.001824h.007303l1.111935-.01641.996907-.014587.304915-.005471 1.290866-.018233.489324-.007294.792414-.012764 1.26713-.018234.02191-.007293h.005478v.007293l1.239743-.018234.766851-.01094.485673-.007294 1.243395-.018234.281179-.00547.953086-.014587 1.024295-.014587.191713-.003647h.007303l1.216007-.018234.551403-.007293.653649-.009117 1.195923-.020058h.085815l1.099153-.018234.803369-.01094.365167-.007294h.007303l1.159407-.018233.352386-.005471.805194-.012763 1.055334-.016411.093117-.001823 1.137497-.018234.604352-.010941.524015-.009117 1.119238-.018234.166151-.003646.942132-.016411.84171-.014587.257443-.003647 1.090025-.020057.410813-.007294.670082-.012764 1.064463-.020057.031039-.007293h.005478v.007293l.15337-.003647c-.001826-.851525-.003652-1.564472-.007303-2.135194-.007304-1.340195-.020085-2.69133-.036517-4.047935-.489324-40.337122-4.783692-82.153017-17.502471-113.854546-12.631138-31.480898-33.599047-52.962302-67.47197-52.962302-33.874749 0-54.842658 21.481404-67.47197 52.962302-12.718779 31.701529-17.013147 73.517424-17.504297 113.854546" stroke="#000" stroke-linecap="round" stroke-linejoin="round" stroke-width="20"/><path d="m366.598585 20.9474276v918.0000004l226.550539-5.429966v-912.5700344" stroke="#000" stroke-linecap="round" stroke-linejoin="round" stroke-width="20"/><g fill="#000" fill-rule="nonzero"><path d="m441.786578 205.550156c3.319353 0 6.327467 1.346031 8.502935 3.523103 2.175468 2.175468 3.523103 5.183582 3.523103 8.504539 0 3.320958-1.34603 6.327468-3.523103 8.50454-2.175468 2.175468-5.183582 3.523103-8.502935 3.523103-3.320958 0-6.327467-1.346031-8.504539-3.523103-2.175468-2.175468-3.523103-5.183582-3.523103-8.50454 0-3.320957 1.34603-6.327467 3.523103-8.504539 2.177072-2.177072 5.183581-3.523103 8.504539-3.523103"/><path d="m435.92597 294.299943c-34.244368 0-35.63532 42.118407 0 42.118407l23.790571-.117116v-41.999687h-23.790571z"/><path d="m435.92597 374.720062c-34.244368 0-35.63532 42.118406 0 42.118406l23.790571-.117115v-41.999687h-23.790571z"/><path d="m435.92597 453.336916c-34.244368 0-35.63532 42.116803 0 42.116803l23.790571-.11872v-41.999687h-23.790571z"/><path d="m435.92597 535.563508c-34.244368 0-35.63532 42.116802 0 42.116802l23.790571-.117115v-41.999687z"/><path d="m435.92597 615.983627c-34.244368 0-35.63532 42.116802 0 42.116802l23.790571-.117116v-41.999686z"/><path d="m522.214719 294.299943c34.244368 0 35.635319 42.118407 0 42.118407l-23.790571-.117116v-41.999687h23.790571z"/><path d="m522.214719 374.720062c34.244368 0 35.635319 42.118406 0 42.118406l-23.790571-.117115v-41.999687h23.790571z"/><path d="m522.214719 453.336916c34.244368 0 35.635319 42.116803 0 42.116803l-23.790571-.11872v-41.999687h23.790571z"/><path d="m522.214719 535.563508c34.244368 0 35.635319 42.116802 0 42.116802l-23.790571-.117115v-41.999687z"/><path d="m522.214719 615.983627c34.244368 0 35.635319 42.116802 0 42.116802l-23.790571-.117116v-41.999686z"/></g></g></svg>