<svg height="960" viewBox="0 0 960 960" width="960" xmlns="http://www.w3.org/2000/svg"><g fill="none" fill-rule="evenodd" stroke="#000" stroke-linejoin="round"><path d="m170.13502 47.3931624c12.843613-10.9701051 29.872179-17.0405371 48.041433-15.611099l534 42.0116275c17.168574 1.3507111 32.37446 9.1890713 43.288204 20.9951599 10.913743 11.8060882 17.535343 27.5799052 17.535343 44.8015292v659.020885c0 16.777444-6.294251 32.219703-16.755807 43.943252-10.461555 11.723548-25.090414 19.728387-41.75963 21.63099l-549.51609 62.721089c-7.036886.803181-14.157181.468463-21.087688-.991312l-10.031855-2.113013c-7.824068-1.647986-14.5363-5.923426-19.292516-11.785805-4.756215-5.862379-7.556414-13.311697-7.556414-21.30744v-793.1302732c0-1.7274802.067822-3.4542945.203311-5.1764532 1.429438-18.1692541 10.088096-34.0390322 22.931709-45.0091372z" stroke-linecap="round" stroke-width="20"/><path d="m228.20574 15.3834073-.04974 6.0795927 525.381497 41.7986876c19.185515 1.52635 36.237221 10.2030375 48.652254 23.3422578l.452136.4826894c12.418434 13.3735132 20.072993 31.2658202 20.350347 50.8571772l.007766 1.021908v659.280171c0 19.088341-7.018301 36.667241-18.685739 50.093474-11.766512 13.540241-28.25657 22.858042-47.075091 25.299248l-.982133.120909-543.636883 62.747224c-4.52682.522491-9.083767.62933-13.615432.323182l-1.027978-.076568c-2.773413-.225805-5.535767-.606511-8.274319-1.141554l-1.151505-.234317-10.012293-2.132588c-2.096036-.446449-4.13014-1.040959-6.092779-1.770787l-16.451482-3.517872c-15.289857-3.268389-28.421044-11.60285-37.787647-23.017354-9.393963-11.447846-15.000146-25.994062-15.201147-41.634753l-.005572-.797839v-763.6590971c0-15.23298 5.136512-29.4957149 13.94569-40.9174854 8.834319-11.4543684 21.362793-20.0506123 36.10813-23.9040572l.753338-.1922753z" stroke-width="40"/><g stroke-linecap="round" stroke-width="20"><path d="m304.912123 130.218399 401 30.254227c27.124149 2.046435 48.087877 24.651393 48.087877 51.852631v520.780498c0 26.529043-19.970528 48.804744-46.342068 51.691274l-401 43.891951c-28.548302 3.124789-54.224416-17.48504-57.349206-46.033342-.205664-1.878965-.308726-3.767745-.308726-5.657932v-594.926676c0-28.718807 23.281193-52 52-52 1.305428 0 2.610394.049158 3.912123.147369z"/><path d="m702.567792 270.04903v-42.296514c-17.673353-8.745142-53.363225-16.052199-107.069614-21.921171-53.70639-5.868972-131.161987-5.868972-232.366791 0v40.33896c98.528532-7.071331 178.547833-7.071331 240.0579 0 61.510068 7.071332 94.636236 15.030907 99.378505 23.878725"/><path d="m363.131387 449.961934c98.579541 2.39437 173.665046 3.591555 225.256513 3.591555 51.591468 0 89.615842-.530518 114.073125-1.591555v46.755537c-24.783966 6.034754-62.808341 9.05213-114.073125 9.05213s-126.350288-.732485-225.256513-2.197456z"/><path d="m690.905295 263.000178.094705 182.999822"/><path d="m391.341319 245.349091v204.612843"/><path d="m363.131387 246.170305v203.791629"/></g></g></svg>