<?xml version="1.0" encoding="utf-8"?>
<!-- Generator: Adobe Illustrator 17.0.0, SVG Export Plug-In . SVG Version: 6.00 Build 0)  -->
<!DOCTYPE svg PUBLIC "-//W3C//DTD SVG 1.1//EN" "http://www.w3.org/Graphics/SVG/1.1/DTD/svg11.dtd">
<svg version="1.1" id="Layer_1" xmlns="http://www.w3.org/2000/svg" xmlns:xlink="http://www.w3.org/1999/xlink" x="0px" y="0px"
	 width="403.693px" height="401.322px" viewBox="0 0 443.693 401.322" enable-background="new 0 0 403.693 401.322"
	 xml:space="preserve">
      <style type="text/css">
   <![CDATA[
    svg .move {
        -moz-animation: move 2s infinite ease-in-out alternate;
        -webkit-animation: move 2s infinite ease-in-out alternate;
        -ms-animation: move 2s infinite ease-in-out alternate;
        animation: move 2s infinite ease-in-out alternate;
    }

    @-webkit-keyframes move {
        from {
            transform: rotate(8deg) translate(50px, -30px);
        }
        20% {
            transform: rotate(8deg) translate(50px, -30px);
        }
        80% {
            transform: rotate(0.5deg) translate(-62px, -10px);
        }
        to {
            transform: rotate(0.5deg) translate(-62px, -10px);
        }
    }

    @keyframes move {
        from {
            transform: rotate(8deg) translate(50px, -30px);
        }
        20% {
            transform: rotate(8deg) translate(50px, -30px);
        }
        80% {
            transform: rotate(0.5deg) translate(-62px, -10px);
        }
        to {
            transform: rotate(0.5deg) translate(-62px, -10px);
        }
    }
   ]]>
  </style>
<g>
	<path fill-rule="evenodd" clip-rule="evenodd" d="M252.495,48.886c-1.334-2.149-2.714-4.371-3.985-6.774
		c-4.313-8.146-9.551-19.003-11.442-23.016c-0.413-1.099-0.948-2.097-1.607-2.994c-3.854-5.251-11.149-5.94-17.096-5.945
		L142.14,3.388c-1.292-0.138-2.544-0.279-3.758-0.416c-17.145-1.932-27.493-3.097-35.074,17.747l-6.94,18.697L56.62,157.139
		l-0.107,0.317l0.895,6.429l-2.916-0.443L6.391,305.901l-3.1,8.653c-2.799,7.794-5.134,16.665-1.237,23.369
		c0.482,0.83,1.052,1.607,1.708,2.33H3.76c0.004,0.004,0.007,0.007,0.011,0.011c0.317,0.349,0.654,0.685,1.011,1.009
		c1.202,1.219,3.02,3.104,5.173,5.337c18.673,19.365,23.128,23.404,24.955,23.678l0,0.002l85.811,12.29l13.409,2.349
		c2.7,0.428,6.078,0.963,9.687,0.963c8.73,0,18.804-3.134,23.831-18.507l7.163-22.229l83.209-269.824
		C261.805,63.88,257.283,56.597,252.495,48.886z M143.033,323.087l-4.707,15.814c-6.331,20.137-9.145,20.985-28.363,18.323
		l-16.884-1.775l-67.674-10.467l-7.752-1.182c-4.813-0.843-8.472-2.384-10.931-4.597c-0.353-0.357-0.652-0.657-0.893-0.893
		c-0.509-0.566-0.951-1.171-1.324-1.813c-3.313-5.698-1.124-13.807,1.455-20.987l3.109-8.679l47.349-140.231l4.322,0.657
		l-0.108-0.774l126.713,16.157L143.033,323.087z M232.921,38.18L189.944,174.4L60.432,157.886l-1.006-0.06l-0.014-0.097
		L99.039,40.363l6.929-18.666c6.821-18.755,15.268-17.803,32.097-15.908c1.219,0.138,2.477,0.279,3.799,0.42l76.312,6.777
		l0.125,0.006c7.856,0,12.444,1.477,14.874,4.788c0.252,0.343,0.481,0.709,0.688,1.099c0.133,0.326,0.312,0.721,0.541,1.21
		C235.917,24.156,235.422,30.223,232.921,38.18z"/>
	<path fill-rule="evenodd" clip-rule="evenodd" d="M105.201,144.608c-0.021-0.226-0.048-0.45-0.084-0.672
		c-0.012-0.071-0.025-0.141-0.038-0.212c-0.039-0.211-0.085-0.419-0.138-0.625c-0.021-0.082-0.044-0.163-0.067-0.244
		c-0.054-0.188-0.115-0.374-0.181-0.558c-0.034-0.095-0.07-0.189-0.107-0.283c-0.065-0.162-0.135-0.321-0.209-0.478
		c-0.052-0.11-0.105-0.219-0.162-0.327c-0.07-0.133-0.145-0.264-0.222-0.393c-0.073-0.123-0.148-0.244-0.227-0.362
		c-0.072-0.107-0.148-0.212-0.226-0.316c-0.096-0.13-0.195-0.258-0.3-0.383c-0.072-0.085-0.148-0.167-0.224-0.25
		c-0.12-0.131-0.243-0.26-0.373-0.384c-0.025-0.024-0.046-0.051-0.072-0.074l-0.198-0.183l-0.019,0
		c-0.077-0.066-0.146-0.138-0.226-0.202c-1.383-1.101-3.065-1.683-4.863-1.683c-2.903,0-5.759,1.527-7.638,4.085
		c-3.141,4.273-2.676,10.153,1.036,13.107c1.266,1.007,2.787,1.555,4.413,1.646l0.03,0.028l0.27,0.005
		c0.021,0,0.042-0.003,0.063-0.003c0.03,0,0.058,0.007,0.088,0.007h0c0.217,0,0.432-0.025,0.648-0.042
		c0.114-0.009,0.228-0.009,0.342-0.022c0.255-0.03,0.506-0.082,0.757-0.135c0.109-0.023,0.219-0.037,0.328-0.064
		c0.246-0.061,0.487-0.144,0.728-0.226c0.114-0.039,0.229-0.068,0.341-0.111c0.229-0.088,0.451-0.197,0.674-0.304
		c0.111-0.053,0.226-0.094,0.336-0.152c0.009-0.005,0.017-0.011,0.026-0.016c0.138-0.073,0.269-0.163,0.404-0.243
		c0.187-0.111,0.377-0.216,0.558-0.341c0.138-0.095,0.268-0.207,0.402-0.31c0.167-0.128,0.337-0.247,0.497-0.387
		c0.213-0.185,0.413-0.389,0.613-0.593c0.071-0.073,0.148-0.137,0.218-0.212c0.27-0.292,0.526-0.6,0.766-0.927
		c0.118-0.16,0.22-0.327,0.328-0.491c0.065-0.099,0.137-0.196,0.198-0.297c0.081-0.132,0.149-0.269,0.224-0.404
		c0.079-0.144,0.163-0.286,0.235-0.432c0.057-0.116,0.105-0.235,0.158-0.353c0.076-0.17,0.154-0.339,0.221-0.511
		c0.04-0.103,0.072-0.207,0.109-0.31c0.068-0.191,0.135-0.383,0.191-0.576c0.026-0.088,0.045-0.177,0.069-0.266
		c0.056-0.212,0.108-0.423,0.151-0.636c0.015-0.075,0.025-0.15,0.038-0.225c0.04-0.227,0.075-0.454,0.099-0.682
		c0.007-0.065,0.011-0.13,0.017-0.195c0.021-0.237,0.035-0.472,0.04-0.707c0.001-0.06,0-0.119,0-0.179c0-0.143,0.006-0.287,0-0.429
		c-0.004-0.092-0.017-0.182-0.024-0.274C105.213,144.738,105.206,144.673,105.201,144.608z M91.544,153.063
		c-3.123-2.486-3.472-7.492-0.777-11.16c1.614-2.195,4.042-3.506,6.497-3.506c1.015,0,1.976,0.24,2.849,0.673
		c-0.791,0.174-1.571,0.449-2.316,0.841c-1.308,0.689-2.512,1.707-3.484,3.03c-1.494,2.033-2.175,4.426-2.079,6.69
		c0.069,1.63,0.549,3.192,1.41,4.516C92.887,153.919,92.175,153.565,91.544,153.063z"/>
	<g class="move">
	<path fill="#FFFFFF" fill-rule="evenodd" clip-rule="evenodd" d="M394.754,60.144c-1.334-2.148-2.714-4.37-3.985-6.773   c-4.318-8.156-9.553-19.006-11.442-23.016c-0.413-1.1-0.949-2.097-1.607-2.995c-3.854-5.251-11.15-5.94-17.097-5.945l-20.543-1.824   c-1.292-0.138-2.544-0.279-3.758-0.416c-17.146-1.931-27.493-3.097-35.075,17.747l-6.952,18.74l-38.37,126.77l-0.096,0.314   l0.592,3.63l-0.276,2.163l-1.989-0.263l-42.749,141.246l-3.101,8.652c-2.799,7.794-5.135,16.665-1.238,23.37   c0.482,0.83,1.052,1.606,1.708,2.33h-0.001c0.003,0.003,0.005,0.005,0.007,0.007c0.319,0.352,0.659,0.69,1.02,1.017   c1.202,1.22,3.018,3.103,5.169,5.333c18.626,19.317,23.106,23.384,24.941,23.676l-0.001,0.002l43.638,6.678   c3.131,0.496,5.966,0.731,8.545,0.731c20.374-0.002,24.599-14.677,29.401-31.373c0.852-2.961,1.732-6.022,2.746-9.17   l76.036-274.187C404.063,75.138,399.542,67.855,394.754,60.144z M292.453,338.747l-4.708,15.814"/>
	<path fill-rule="evenodd" clip-rule="evenodd" d="M394.754,60.144c-1.334-2.148-2.714-4.37-3.985-6.773
		c-4.318-8.156-9.553-19.006-11.442-23.016c-0.413-1.1-0.949-2.097-1.607-2.995c-3.854-5.251-11.15-5.94-17.097-5.945l-20.543-1.824
		c-1.292-0.138-2.544-0.279-3.758-0.416c-17.146-1.931-27.493-3.097-35.075,17.747l-6.952,18.74l-38.37,126.77l-0.096,0.314
		l0.592,3.63l-0.276,2.163l-1.989-0.263l-42.749,141.246l-3.101,8.652c-2.799,7.794-5.135,16.665-1.238,23.37
		c0.482,0.83,1.052,1.606,1.708,2.33h-0.001c0.003,0.003,0.005,0.005,0.007,0.007c0.319,0.352,0.659,0.69,1.02,1.017
		c1.202,1.22,3.018,3.103,5.169,5.333c18.626,19.317,23.106,23.384,24.941,23.676l-0.001,0.002l43.638,6.678
		c3.131,0.496,5.966,0.731,8.545,0.731c20.374-0.002,24.599-14.677,29.401-31.373c0.852-2.961,1.732-6.022,2.746-9.17
		l76.036-274.187C404.063,75.138,399.542,67.855,394.754,60.144z M292.453,338.747l-4.708,15.814
		c-6.33,20.136-9.143,20.985-28.304,18.329l-29.022-4.286l-7.753-1.181c-4.81-0.843-8.468-2.383-10.926-4.594
		c-0.356-0.36-0.659-0.663-0.901-0.9c-0.508-0.565-0.948-1.168-1.32-1.809c-3.313-5.699-1.124-13.808,1.455-20.987l3.123-8.722
		l42.07-138.995l2.899,0.37l1.133,0.15l-0.001-0.005l71.625,9.133L292.453,338.747z M375.168,49.476l-40.98,143.316l-75.417-9.616
		l-0.038-0.236l38.247-126.373l6.928-18.666c6.822-18.755,15.269-17.804,32.097-15.908c1.219,0.138,2.477,0.279,3.8,0.42
		l20.63,1.832l0.125,0.006c7.857,0,12.445,1.477,14.875,4.788c0.252,0.343,0.48,0.709,0.688,1.099
		c0.132,0.326,0.312,0.721,0.54,1.21C378.175,35.415,377.679,41.487,375.168,49.476z"/>
		</g>
</g>
<g>
	<path fill-rule="evenodd" clip-rule="evenodd" fill="#000000" d="M95.454,143.778c-1.299,1.767-1.891,3.841-1.808,5.798
		c0.078,1.85,0.762,3.593,2.022,4.863c1.131-0.024,2.28-0.328,3.351-0.892c1.124-0.591,2.161-1.471,3.002-2.615
		c1.299-1.767,1.891-3.841,1.808-5.798c-0.078-1.85-0.762-3.594-2.022-4.862c-1.131,0.024-2.28,0.327-3.351,0.891
		C97.332,141.754,96.295,142.633,95.454,143.778"/>
</g>
</svg>
