<?xml version="1.0" encoding="utf-8"?>
<!-- Generator: Adobe Illustrator 17.0.0, SVG Export Plug-In . SVG Version: 6.00 Build 0)  -->
<!DOCTYPE svg PUBLIC "-//W3C//DTD SVG 1.1//EN" "http://www.w3.org/Graphics/SVG/1.1/DTD/svg11.dtd">
<svg version="1.1" id="Layer_1" xmlns="http://www.w3.org/2000/svg" xmlns:xlink="http://www.w3.org/1999/xlink" x="0px" y="0px"
	 width="384.407px" height="441.655px" viewBox="0 0 384.407 441.655" enable-background="new 0 0 384.407 441.655"
	 xml:space="preserve">
<path stroke="#2B2A29" stroke-width="1.4173" stroke-miterlimit="22.9256" d="M192.204,90.2
	c-52.198-0.22-104.427,1.297-110.307,5.264"/>
<g>
	<path d="M205.154,338.082h-12.95h-12.95c-2.331,0-4.45,0.954-5.987,2.491s-2.491,3.656-2.491,5.987s0.954,4.45,2.491,5.987
		s3.656,2.491,5.987,2.491h12.95h12.95c2.331,0,4.45-0.954,5.987-2.491c1.537-1.536,2.491-3.656,2.491-5.987
		s-0.954-4.45-2.491-5.987C209.605,339.036,207.485,338.082,205.154,338.082z"/>
	<path d="M149.409,338.082h-26.435c-2.331,0-4.45,0.954-5.987,2.491s-2.491,3.656-2.491,5.987s0.954,4.45,2.491,5.987
		s3.656,2.491,5.987,2.491h26.435c2.331,0,4.45-0.954,5.987-2.491c1.537-1.536,2.491-3.656,2.491-5.987s-0.954-4.45-2.491-5.987
		C153.86,339.037,151.74,338.082,149.409,338.082z"/>
	<path d="M192.269,114.734l-0.065,0.001l-0.066-0.001c-78.139,0-141.483,63.344-141.483,141.483S113.999,397.7,192.138,397.7
		l0.066-0.001l0.065,0.001c78.139,0,141.483-63.344,141.483-141.483S270.408,114.734,192.269,114.734z M156.399,353.549
		c-1.793,1.793-4.267,2.906-6.989,2.906h-26.435c-2.722,0-5.196-1.113-6.989-2.906c-1.793-1.793-2.906-4.267-2.906-6.989
		s1.113-5.197,2.906-6.989c1.792-1.793,4.267-2.906,6.989-2.906h26.435c2.722,0,5.196,1.113,6.989,2.906
		c1.793,1.793,2.906,4.267,2.906,6.989C159.305,349.282,158.192,351.757,156.399,353.549z M212.142,353.549
		c-1.793,1.793-4.267,2.906-6.989,2.906h-12.95h-12.95c-2.722,0-5.196-1.113-6.989-2.906c-1.793-1.793-2.906-4.267-2.906-6.989
		s1.113-5.197,2.906-6.989c1.793-1.793,4.267-2.906,6.989-2.906h12.95h12.95c2.722,0,5.197,1.113,6.989,2.906
		c1.793,1.793,2.906,4.267,2.906,6.989C215.048,349.282,213.935,351.757,212.142,353.549z M268.422,353.549
		c-1.793,1.793-4.267,2.906-6.989,2.906h-26.435c-2.722,0-5.196-1.113-6.989-2.906c-1.793-1.793-2.906-4.267-2.906-6.989
		s1.113-5.197,2.906-6.989c1.793-1.793,4.267-2.906,6.989-2.906h26.435c2.722,0,5.196,1.113,6.989,2.906
		c1.793,1.793,2.906,4.267,2.906,6.989C271.328,349.282,270.215,351.757,268.422,353.549z M192.204,295.555h-92.7v-129.75h92.699
		h92.699v129.75H192.204z"/>
	<path d="M261.433,338.082h-26.435c-2.331,0-4.45,0.954-5.987,2.491s-2.491,3.656-2.491,5.987s0.954,4.45,2.491,5.987
		s3.656,2.491,5.987,2.491h26.435c2.331,0,4.45-0.954,5.987-2.491c1.537-1.536,2.491-3.656,2.491-5.987s-0.954-4.45-2.491-5.987
		C265.883,339.037,263.763,338.082,261.433,338.082z"/>
</g>
<path d="M106.962,26.555L106.962,26.555h0.003c0.001-2.284,10.724-3.849,26.835-4.771c15.744-0.901,36.722-1.349,57.737-1.349v0.003
	h0.668v1.412h-0.668v0.003c-21.028,0-41.982,0.446-57.659,1.343c-15.311,0.876-25.5,2.018-25.501,3.36h0.003l0,0h-1.418
	C106.962,26.556,106.962,26.555,106.962,26.555z"/>
<path d="M120.412,17.577c0.637-1.979,1.619-4.003,2.946-6.068c1.317-2.051,2.977-4.149,4.979-6.294l1.035,0.963
	c-1.943,2.082-3.551,4.114-4.823,6.095c-1.263,1.966-2.194,3.878-2.791,5.736L120.412,17.577z"/>
<path d="M136.665,16.529c-0.21-1.863,0.233-3.979,1.327-6.35c1.063-2.302,2.753-4.863,5.066-7.681l1.091,0.897
	c-2.233,2.719-3.857,5.178-4.872,7.377c-0.984,2.131-1.386,3.999-1.206,5.602L136.665,16.529z"/>
<path d="M144.201,16.46c-0.026-2.067,0.471-4.542,1.65-7.261c1.027-2.369,2.574-4.93,4.746-7.576l1.091,0.897
	c-2.086,2.54-3.566,4.986-4.542,7.238c-1.096,2.527-1.557,4.802-1.534,6.686L144.201,16.46z"/>
<path d="M151.059,1.368c4.785-0.573,10.15-0.953,16.367-1.164c6.188-0.211,13.222-0.253,21.374-0.152l0.701,0.009v0.697v14.445
	h-1.417V1.455c-7.826-0.09-14.614-0.044-20.613,0.16c-6.148,0.209-11.472,0.587-16.245,1.159L151.059,1.368z"/>
<path d="M128.588,5.04c1.648-0.67,3.729-1.24,6.24-1.708c2.491-0.464,5.399-0.828,8.721-1.092l0.041-0.003l0.055,0.003
	c1.206,0.072,2.394,0.073,3.563,0.003c1.167-0.07,2.316-0.212,3.446-0.424l0.26,1.389c-1.189,0.223-2.397,0.372-3.623,0.446
	c-1.206,0.072-2.431,0.072-3.673,0.001c-3.275,0.26-6.122,0.616-8.536,1.066c-2.405,0.448-4.393,0.992-5.963,1.631L128.588,5.04z"/>
<path stroke="#2B2A29" stroke-width="0.5669" stroke-miterlimit="22.9256" d="M192.204,90.2
	c52.198-0.22,104.427,1.297,110.307,5.264"/>
<path d="M276.028,26.555L276.028,26.555h0.003c-0.001-1.341-10.19-2.483-25.501-3.36c-15.677-0.897-36.632-1.343-57.659-1.343
	v-0.003h-0.668v-1.412h0.668v-0.003c21.015,0,41.993,0.448,57.737,1.349c16.111,0.922,26.834,2.487,26.835,4.771h0.003l0,0h-1.418
	L276.028,26.555L276.028,26.555z"/>
<path d="M262.65,18.009c-0.598-1.858-1.528-3.77-2.791-5.736c-1.272-1.981-2.881-4.013-4.823-6.095l1.035-0.963
	c2.001,2.145,3.661,4.243,4.978,6.294c1.327,2.066,2.309,4.089,2.946,6.068L262.65,18.009z"/>
<path d="M246.336,16.374c0.18-1.603-0.222-3.471-1.206-5.602c-1.015-2.199-2.639-4.658-4.872-7.377l1.091-0.897
	c2.314,2.818,4.003,5.379,5.066,7.681c1.094,2.37,1.537,4.487,1.327,6.35L246.336,16.374z"/>
<path d="M238.795,16.443c0.023-1.884-0.438-4.159-1.534-6.686c-0.976-2.252-2.456-4.698-4.542-7.238l1.091-0.897
	c2.172,2.645,3.719,5.207,4.746,7.576c1.179,2.719,1.675,5.194,1.65,7.261L238.795,16.443z"/>
<path d="M233.182,2.774c-4.773-0.572-10.097-0.95-16.245-1.159c-5.999-0.204-12.787-0.25-20.613-0.16v13.748h-1.417V0.758V0.061
	l0.7-0.009c8.152-0.101,15.186-0.059,21.374,0.152c6.218,0.212,11.582,0.592,16.367,1.164L233.182,2.774z"/>
<path d="M255.288,6.352c-1.569-0.638-3.558-1.182-5.962-1.631c-2.415-0.45-5.261-0.806-8.536-1.066
	c-1.242,0.072-2.466,0.072-3.672-0.001c-1.226-0.074-2.434-0.223-3.623-0.446l0.26-1.389c1.13,0.212,2.279,0.354,3.446,0.424
	c1.169,0.07,2.357,0.069,3.563-0.003l0.055-0.003l0.042,0.003c3.322,0.263,6.23,0.627,8.721,1.092
	c2.511,0.468,4.591,1.038,6.24,1.708L255.288,6.352z"/>
<path d="M142.02,3.8l0.005-0.007c-2.613,0.244-4.928,0.554-6.943,0.929c-2.333,0.435-4.273,0.96-5.82,1.573
	c-1.894,2.041-3.466,4.034-4.714,5.978c-1.025,1.596-1.831,3.157-2.418,4.682c1.816-0.21,3.845-0.406,6.061-0.588
	c2.54-0.209,5.365-0.403,8.426-0.58c-0.004-0.21-0.001-0.422,0.01-0.638l0.003-0.064l0.001-0.017l0.005-0.077l0.001-0.005
	l0.006-0.082c0.013-0.164,0.03-0.329,0.051-0.496l0.011-0.083l0,0l0.012-0.084l0.002-0.012l0.011-0.072l0.004-0.025l0.01-0.06
	c0.018-0.113,0.038-0.226,0.06-0.34l0.017-0.086v-0.004l0.017-0.082l0.003-0.017l0.015-0.069l0.006-0.03l0.013-0.057l0.02-0.087
	l0.013-0.056l0.007-0.031l0.017-0.069l0.005-0.018l0.02-0.083l0.001-0.005l0.022-0.088l0.002-0.008l0.021-0.08l0.006-0.022
	l0.018-0.067l0.01-0.035l0.015-0.053l0.014-0.049l0.012-0.04l0.018-0.062l0.008-0.027l0.027-0.09l0.027-0.09l0,0l0.028-0.09
	l0.004-0.013l0.025-0.077l0.03-0.091l0.013-0.04l0.017-0.051l0.019-0.055l0.013-0.037l0.024-0.068l0.008-0.023l0.03-0.082
	l0.003-0.01l0.033-0.092l0.002-0.005l0.033-0.088l0.007-0.018l0.028-0.074l0.012-0.032l0.023-0.061l0.018-0.046l0.042-0.108
	l0.013-0.033l0.03-0.075l0.008-0.019l0.037-0.09l0.002-0.005l0.039-0.094l0.004-0.009l0.036-0.085l0.01-0.024l0.031-0.071
	l0.016-0.038l0.025-0.057l0.023-0.052l0.019-0.043l0.03-0.067l0.013-0.029l0.037-0.082l0.007-0.014l0.044-0.096l0.043-0.091
	l0.008-0.017L138.08,10l0.016-0.034l0.028-0.058l0.024-0.051l0.02-0.041l0.033-0.068l0.012-0.024l0.042-0.085l0.004-0.008
	l0.047-0.093l0.005-0.01l0.042-0.084l0.014-0.027l0.034-0.067l0.023-0.044l0.026-0.049l0.032-0.062l0.017-0.032l0.042-0.079
	l0.008-0.015l0.05-0.095l0.001-0.002l0.05-0.092l0.01-0.02l0.041-0.075l0.02-0.037l0.032-0.058l0.03-0.055l0.022-0.04l0.041-0.073
	l0.013-0.023l0.051-0.091l0.003-0.005l0.055-0.096l0.007-0.012l0.049-0.084l0.017-0.03l0.039-0.067l0.028-0.048l0.029-0.049
	l0.039-0.066l0.018-0.031l0.05-0.085l0.008-0.013l0.059-0.098l0.003-0.005l0.057-0.094l0.014-0.023l0.046-0.076l0.025-0.041
	l0.035-0.058l0.037-0.059l0.025-0.04l0.048-0.078l0.013-0.022l0.061-0.096l0.002-0.003l0.063-0.1l0.01-0.015l0.054-0.085
	l0.021-0.034l0.043-0.067l0.034-0.052l0.031-0.048l0.047-0.071l0.02-0.03l0.059-0.09l0.008-0.011l0.067-0.101l0.005-0.007
	l0.063-0.095l0.018-0.026l0.051-0.076l0.03-0.045l0.039-0.058l0.043-0.064l0.027-0.039l0.057-0.083l0.014-0.02l0.071-0.102
	l0.001-0.001l0.072-0.103l0.013-0.018l0.06-0.086l0.026-0.037l0.047-0.067l0.04-0.057l0.034-0.048l0.054-0.076l0.02-0.029
	l0.068-0.095l0.007-0.009l0.076-0.105l0.007-0.01l0.069-0.095l0.021-0.029l0.056-0.076l0.036-0.049l0.042-0.057l0.051-0.069
	l0.028-0.038l0.066-0.088l0.014-0.018l0.08-0.107l0.001-0.002l0.079-0.105l0.016-0.021l0.065-0.086l0.031-0.041l0.051-0.067
	l0.046-0.061l0.036-0.047l0.062-0.081l0.021-0.027L142.02,3.8z M138.03,15.707c0.954-0.052,1.945-0.104,2.974-0.155
	c1.046-0.052,2.123-0.102,3.227-0.151l0.006-0.086l0.001-0.007l0.006-0.079l0.002-0.018l0.006-0.069l0.003-0.029l0.005-0.058
	l0.004-0.04l0.005-0.048l0.005-0.051l0.004-0.037l0.007-0.062l0.003-0.026l0.008-0.073l0.002-0.016l0.01-0.085l0.001-0.005
	l0.011-0.089l0.001-0.007l0.011-0.083l0.003-0.017l0.01-0.073l0.004-0.029l0.009-0.062l0.006-0.04l0.008-0.051l0.008-0.052
	l0.006-0.04l0.01-0.063l0.005-0.029l0.012-0.075l0.003-0.017l0.015-0.086l0.001-0.006l0.017-0.093l0.001-0.006l0.016-0.087
	l0.003-0.017l0.015-0.076l0.005-0.029l0.013-0.065l0.008-0.041l0.011-0.053l0.011-0.052l0.009-0.042l0.014-0.064l0.007-0.031
	l0.017-0.076l0.004-0.019l0.02-0.088l0.002-0.007l0.022-0.096l0.001-0.005l0.022-0.091l0.004-0.017l0.019-0.08l0.007-0.029
	l0.017-0.068l0.01-0.04l0.015-0.056l0.014-0.053l0.012-0.044l0.017-0.065l0.009-0.033l0.021-0.077l0.006-0.021l0.025-0.09
	l0.003-0.009l0.028-0.098l0.001-0.004l0.027-0.095l0.005-0.016l0.024-0.083l0.008-0.028l0.021-0.072l0.012-0.04l0.018-0.059
	l0.016-0.053l0.015-0.047l0.02-0.066l0.011-0.035l0.025-0.078l0.007-0.023l0.029-0.091l0.003-0.01l0.033-0.101l0.001-0.003
	l0.033-0.099l0.035-0.102l0.009-0.028l0.026-0.075l0.014-0.04l0.022-0.062l0.019-0.053l0.018-0.05l0.024-0.066l0.014-0.037
	l0.029-0.079l0.009-0.024l0.035-0.092l0.004-0.012l0.04-0.104v-0.001l0.04-0.103l0.006-0.014l0.035-0.09l0.011-0.027l0.031-0.077
	l0.016-0.04l0.026-0.065l0.021-0.053l0.021-0.052l0.027-0.066l0.016-0.039l0.033-0.079l0.011-0.026l0.039-0.093l0.006-0.013
	l0.046-0.106l0.037-0.085l0.009-0.02l0.029-0.065l0.018-0.04l0.02-0.045l0.027-0.06L146,8.864l0.036-0.081l0.002-0.005l0.039-0.086
	l0.007-0.015l0.033-0.071l0.016-0.035l0.024-0.051l0.026-0.055l0.015-0.031l0.036-0.076l0.005-0.01l0.041-0.086l0.005-0.01
	l0.037-0.077l0.015-0.03l0.028-0.057l0.025-0.051l0.018-0.036l0.036-0.071l0.008-0.016l0.044-0.088l0.003-0.005l0.042-0.083
	l0.013-0.025l0.002-0.003l0.054-0.105l0.021-0.042l0.035-0.067l0.011-0.022l0.046-0.087V7.386l0.046-0.088l0.011-0.02l0.058-0.109
	l0.025-0.048l0.033-0.062l0.06-0.11l0.003-0.006l0.049-0.089l0.008-0.015l0.041-0.074l0.02-0.036l0.03-0.053l0.032-0.057L147.2,6.51
	l0.007-0.012l0.051-0.09l0.005-0.009l0.046-0.08l0.018-0.031l0.035-0.059l0.03-0.052l0.022-0.038l0.043-0.073l0.01-0.017l0.054-0.09
	l0.002-0.004l0.052-0.087l0.015-0.025l0.039-0.065l0.028-0.047l0.027-0.044l0.042-0.068l0.014-0.023l0.055-0.089l0.001-0.001
	l0.057-0.091l0.012-0.02l0.045-0.071l0.026-0.041l0.032-0.05l0.04-0.063l0.018-0.028l0.054-0.084l0.005-0.007l0.059-0.091
	l0.01-0.014l0.05-0.077l0.023-0.036l0.037-0.056l0.038-0.058l0.022-0.034l0.053-0.079l0.008-0.013l0.062-0.092l0.006-0.009
	l0.056-0.083l0.021-0.031l0.042-0.061l0.036-0.052l0.027-0.04l0.051-0.074l0.012-0.018l0.064-0.092l0.003-0.003l0.062-0.089
	l0.018-0.025l0.048-0.068l0.033-0.047l0.033-0.046l0.049-0.069l0.017-0.024l0.065-0.091l0.002-0.002l0.067-0.093
	c-0.618,0.077-1.241,0.135-1.868,0.172c-1.107,0.066-2.23,0.072-3.368,0.017l-0.084,0.104l-0.015,0.018l-0.087,0.108l-0.011,0.014
	l-0.089,0.112l-0.008,0.01l-0.191,0.24l-0.001,0.001l-0.095,0.12l-0.003,0.003l-0.091,0.117l-0.006,0.007l-0.087,0.112l-0.009,0.012
	l-0.083,0.108l-0.012,0.016l-0.079,0.103l-0.09,0.118l-0.018,0.024l-0.072,0.094l-0.021,0.028l-0.068,0.09l-0.024,0.032
	l-0.064,0.085l-0.027,0.036l-0.06,0.081l-0.03,0.04l-0.057,0.077l-0.033,0.044L142.357,5.7l-0.035,0.048l-0.05,0.068l-0.038,0.052
	l-0.046,0.064l-0.041,0.056l-0.042,0.059l-0.082,0.115l-0.045,0.064l-0.036,0.051l-0.048,0.068l-0.033,0.047l-0.05,0.072
	l-0.03,0.043l-0.007,0.009l-0.072,0.104l-0.054,0.079l-0.024,0.034l-0.057,0.083l-0.021,0.03l-0.059,0.086l-0.018,0.026l-0.061,0.09
	l-0.015,0.022l-0.062,0.094l-0.012,0.018l-0.065,0.097l-0.009,0.014l-0.066,0.101l-0.007,0.01l-0.068,0.105L141.1,7.515l-0.07,0.108
	l-0.002,0.002l-0.07,0.11l-0.001,0.001l-0.069,0.108l-0.003,0.005l-0.066,0.104l-0.006,0.009l-0.062,0.1l-0.008,0.013l-0.059,0.095
	l-0.01,0.017L140.62,8.28l-0.012,0.021l-0.053,0.087l-0.015,0.024l-0.05,0.083l-0.017,0.028l-0.047,0.079l-0.019,0.031l-0.044,0.075
	l-0.021,0.035L140.3,8.814l-0.022,0.039l-0.039,0.068l-0.024,0.043l-0.036,0.063l-0.026,0.046l-0.034,0.059l-0.028,0.05
	l-0.031,0.056l-0.029,0.053l-0.029,0.052L139.971,9.4l-0.026,0.048l-0.033,0.06l-0.024,0.044l-0.034,0.063l-0.021,0.04l-0.035,0.067
	l-0.019,0.036l-0.037,0.07l-0.017,0.033l-0.038,0.074l-0.015,0.029l-0.039,0.077l-0.013,0.025l-0.04,0.08l-0.011,0.022l-0.042,0.084
	l-0.009,0.018l-0.043,0.087l-0.007,0.014l-0.044,0.09l-0.005,0.011l-0.045,0.093l-0.003,0.007l-0.046,0.097l-0.001,0.003l-0.046,0.1
	l-0.04,0.086l-0.006,0.014l-0.033,0.072l-0.012,0.027l-0.026,0.059l-0.018,0.04l-0.02,0.045l-0.023,0.053l-0.014,0.031l-0.029,0.067
	l-0.008,0.018l-0.034,0.079l-0.002,0.005l-0.035,0.084l-0.004,0.008l-0.031,0.076l-0.009,0.021l-0.025,0.062l-0.014,0.035
	l-0.019,0.049l-0.019,0.047l-0.014,0.036l-0.023,0.06l-0.009,0.022l-0.028,0.073l-0.004,0.01l-0.031,0.082l-0.001,0.003
	l-0.029,0.078l-0.006,0.016l-0.023,0.065l-0.01,0.029l-0.019,0.052l-0.014,0.041l-0.014,0.039l-0.018,0.054l-0.009,0.027
	l-0.022,0.067l-0.005,0.014l-0.026,0.079l-0.001,0.001l-0.025,0.08l-0.003,0.011l-0.022,0.068l-0.007,0.023l-0.017,0.056
	l-0.011,0.036l-0.053,0.181v0.001l-0.005,0.018l-0.02,0.072l-0.001,0.006l-0.021,0.078l-0.017,0.063l-0.004,0.014l-0.005,0.019
	l-0.015,0.059l-0.008,0.031l-0.011,0.047l-0.054,0.229l-0.017,0.076l-0.001,0.002l-0.015,0.074l-0.003,0.014l-0.012,0.062
	l-0.005,0.025l-0.01,0.05l-0.007,0.037l-0.007,0.038l-0.009,0.048l-0.005,0.026l-0.01,0.06l-0.002,0.014l-0.012,0.071v0.003
	l-0.012,0.073l-0.001,0.009l-0.009,0.064l-0.003,0.02l-0.007,0.052l-0.01,0.073l-0.006,0.043l-0.003,0.029l-0.008,0.072
	l-0.007,0.065l-0.001,0.007l-0.007,0.071l-0.001,0.004l-0.006,0.067l-0.001,0.016l-0.005,0.055l-0.002,0.027l-0.003,0.044
	l-0.003,0.038l-0.002,0.032l-0.003,0.049l-0.001,0.021l-0.003,0.06v0.01l-0.003,0.07v0.001l-0.002,0.069v0.011l-0.001,0.057
	l-0.001,0.137v0.043L138.03,15.707z M245.13,10.772l-0.047-0.1l-0.001-0.003l-0.046-0.097l-0.003-0.007l-0.045-0.093l-0.005-0.011
	l-0.044-0.09l-0.007-0.014l-0.043-0.087l-0.009-0.018l-0.042-0.084l-0.011-0.022l-0.04-0.08l-0.013-0.025l-0.039-0.077l-0.015-0.029
	l-0.038-0.074l-0.017-0.033l-0.037-0.07l-0.019-0.036l-0.035-0.067l-0.022-0.04l-0.034-0.063l-0.024-0.044l-0.033-0.06L244.436,9.4
	l-0.031-0.057l-0.029-0.052l-0.029-0.053l-0.031-0.056l-0.028-0.05l-0.034-0.059l-0.026-0.046l-0.036-0.063l-0.024-0.043
	l-0.039-0.068l-0.023-0.039l-0.041-0.071l-0.021-0.035L244,8.634l-0.019-0.031l-0.047-0.079l-0.017-0.028l-0.05-0.083l-0.014-0.024
	L243.8,8.301l-0.012-0.021l-0.056-0.091l-0.01-0.017l-0.059-0.095l-0.008-0.013l-0.062-0.1l-0.006-0.009L243.52,7.85l-0.003-0.005
	l-0.069-0.108l-0.001-0.001l-0.071-0.11l-0.001-0.002l-0.07-0.108l-0.004-0.006l-0.068-0.105l-0.007-0.01l-0.066-0.101l-0.009-0.014
	l-0.064-0.097l-0.012-0.018l-0.063-0.094l-0.015-0.022l-0.061-0.09l-0.018-0.026l-0.058-0.086l-0.021-0.03l-0.056-0.083L242.759,6.7
	l-0.054-0.079l-0.027-0.038l-0.052-0.075l-0.03-0.043l-0.05-0.072l-0.033-0.047l-0.048-0.068l-0.036-0.051l-0.045-0.064
	l-0.039-0.055l-0.043-0.06l-0.043-0.059l-0.086-0.12l-0.038-0.052l-0.05-0.068L242.051,5.7l-0.053-0.072l-0.032-0.044l-0.057-0.077
	l-0.029-0.04l-0.06-0.081l-0.086-0.116l-0.005-0.006l-0.024-0.032l-0.068-0.09l-0.021-0.028l-0.072-0.094l-0.018-0.024l-0.076-0.099
	l-0.015-0.02l-0.079-0.103l-0.012-0.016L241.26,4.65l-0.009-0.012l-0.087-0.112l-0.006-0.007l-0.091-0.117l-0.002-0.003l-0.095-0.12
	l-0.001-0.001l-0.094-0.119l-0.005-0.006l-0.092-0.115l-0.008-0.01l-0.089-0.112l-0.011-0.014l-0.086-0.108l-0.015-0.018
	l-0.084-0.104c-1.138,0.055-2.261,0.049-3.368-0.017c-0.627-0.038-1.25-0.095-1.868-0.172l0.067,0.093l0.002,0.002l0.065,0.091
	l0.017,0.024l0.049,0.069l0.033,0.046l0.033,0.047l0.048,0.068l0.018,0.025l0.062,0.089l0.003,0.003l0.064,0.092l0.012,0.018
	l0.051,0.074l0.028,0.04l0.036,0.052l0.042,0.061l0.021,0.031l0.056,0.083l0.006,0.009l0.061,0.092l0.008,0.013l0.053,0.079
	l0.022,0.034l0.038,0.058l0.037,0.056l0.023,0.036l0.05,0.077l0.01,0.014l0.059,0.091l0.005,0.007l0.054,0.084l0.018,0.028
	l0.04,0.063l0.031,0.05l0.026,0.041l0.045,0.071l0.012,0.02l0.057,0.091l0.001,0.001l0.055,0.089l0.014,0.023l0.042,0.068
	l0.027,0.044l0.028,0.047l0.039,0.065l0.015,0.025l0.052,0.087l0.002,0.004l0.054,0.09l0.01,0.017l0.043,0.073l0.022,0.038
	l0.03,0.052l0.035,0.059l0.018,0.031l0.047,0.08l0.005,0.009l0.051,0.09l0.007,0.012l0.063,0.111l0.032,0.057l0.03,0.053l0.02,0.036
	l0.041,0.074l0.008,0.015l0.049,0.089l0.003,0.006l0.06,0.11l0.033,0.062l0.025,0.048l0.058,0.109l0.011,0.02l0.046,0.088v0.001
	l0.046,0.087l0.011,0.022l0.035,0.067l0.022,0.042l0.054,0.105l0.002,0.003l0.013,0.025l0.042,0.083l0.003,0.005l0.044,0.088
	l0.008,0.016l0.035,0.071l0.018,0.036l0.025,0.051l0.027,0.057l0.015,0.03l0.037,0.077l0.005,0.01l0.041,0.086l0.005,0.01
	l0.036,0.076l0.014,0.031l0.026,0.055l0.024,0.051l0.016,0.035l0.033,0.071l0.007,0.015l0.039,0.086l0.002,0.005l0.037,0.081
	l0.011,0.025l0.027,0.06l0.02,0.045l0.018,0.04l0.029,0.065l0.009,0.02l0.037,0.085l0.046,0.106l0.006,0.013l0.039,0.093
	l0.011,0.026l0.033,0.079l0.016,0.039l0.027,0.066l0.021,0.052l0.021,0.053l0.026,0.065l0.016,0.04l0.031,0.077l0.011,0.027
	l0.035,0.09l0.006,0.014l0.04,0.103v0.001l0.04,0.104l0.004,0.012l0.035,0.092l0.009,0.024l0.029,0.079l0.014,0.037l0.024,0.066
	l0.018,0.05l0.019,0.053l0.022,0.062l0.014,0.04l0.026,0.075l0.009,0.028l0.035,0.102l0.033,0.099l0.001,0.003l0.033,0.101
	l0.003,0.01l0.029,0.091l0.007,0.023l0.025,0.078l0.011,0.035l0.02,0.066l0.015,0.047l0.016,0.053l0.018,0.059l0.012,0.04
	l0.022,0.072l0.008,0.028l0.024,0.083l0.005,0.016l0.027,0.095l0.001,0.004l0.028,0.098l0.003,0.009l0.025,0.09l0.006,0.021
	l0.021,0.077l0.009,0.033l0.017,0.065l0.012,0.044l0.014,0.053l0.014,0.056l0.01,0.04l0.017,0.068l0.007,0.029l0.019,0.08
	l0.004,0.017l0.022,0.091l0.001,0.005l0.022,0.096l0.002,0.007l0.02,0.088l0.004,0.019l0.017,0.076l0.007,0.031l0.014,0.064
	l0.009,0.042l0.011,0.052l0.011,0.053l0.008,0.041l0.013,0.065l0.005,0.029l0.015,0.076l0.003,0.017l0.016,0.087l0.001,0.006
	l0.017,0.093l0.001,0.006l0.015,0.086l0.003,0.017l0.013,0.075l0.005,0.029l0.01,0.063l0.006,0.04l0.008,0.052l0.008,0.051
	l0.006,0.04l0.009,0.062l0.004,0.029l0.01,0.073l0.003,0.017l0.011,0.083l0.001,0.007l0.011,0.089l0.001,0.005l0.01,0.085
	l0.002,0.016l0.008,0.073l0.003,0.026l0.007,0.062l0.004,0.037l0.005,0.051l0.005,0.048l0.004,0.04l0.005,0.058l0.003,0.029
	l0.006,0.069l0.001,0.018l0.006,0.079l0.001,0.007l0.006,0.086c1.105,0.049,2.182,0.099,3.228,0.151
	c1.028,0.051,2.02,0.102,2.973,0.155v-0.025V15.64l-0.001-0.137l-0.001-0.057v-0.011l-0.002-0.069v-0.001l-0.003-0.07v-0.01
	l-0.003-0.06l-0.001-0.021l-0.003-0.049l-0.002-0.032l-0.003-0.038l-0.003-0.044l-0.002-0.027l-0.005-0.055l-0.001-0.016
	l-0.006-0.067l-0.001-0.004l-0.007-0.071l-0.001-0.007l-0.007-0.065l-0.008-0.072l-0.003-0.029l-0.006-0.043l-0.01-0.073
	l-0.007-0.052l-0.003-0.02l-0.009-0.064l-0.001-0.009l-0.012-0.073v-0.003l-0.012-0.071l-0.002-0.014l-0.01-0.06l-0.005-0.026
	l-0.009-0.048l-0.007-0.038l-0.007-0.037l-0.01-0.05l-0.005-0.025l-0.013-0.062l-0.003-0.014l-0.015-0.074l-0.001-0.002
	l-0.017-0.076l-0.054-0.229l-0.011-0.047l-0.008-0.031l-0.015-0.059l-0.005-0.019l-0.004-0.014l-0.017-0.063l-0.021-0.078
	l-0.001-0.006l-0.02-0.072l-0.005-0.018v-0.001l-0.053-0.181l-0.011-0.036l-0.017-0.056l-0.007-0.023l-0.021-0.068l-0.003-0.011
	l-0.026-0.08l-0.001-0.001l-0.026-0.079l-0.005-0.014l-0.022-0.067l-0.009-0.027l-0.018-0.054l-0.014-0.039l-0.014-0.041
	l-0.018-0.052l-0.01-0.029l-0.024-0.065l-0.006-0.016l-0.029-0.078l-0.001-0.003l-0.031-0.082l-0.004-0.01l-0.027-0.073
	l-0.009-0.022l-0.023-0.06l-0.014-0.036l-0.019-0.047l-0.019-0.049l-0.014-0.035l-0.025-0.062l-0.009-0.021l-0.031-0.076
	l-0.004-0.008l-0.035-0.084l-0.002-0.005l-0.034-0.079l-0.008-0.018l-0.029-0.067l-0.014-0.031l-0.023-0.053l-0.02-0.045
	l-0.018-0.04l-0.026-0.059l-0.012-0.027l-0.033-0.072l-0.006-0.014L245.13,10.772z M232.995,2.86l-0.096-0.119
	c-4.7-0.553-9.935-0.92-15.962-1.125c-5.999-0.204-12.787-0.25-20.613-0.16V14.5c7.68,0.019,15.305,0.102,22.591,0.247
	c7.019,0.14,13.717,0.338,19.841,0.595l-0.003-0.033l-0.004-0.044l-0.004-0.046l-0.003-0.032l-0.001-0.01l-0.007-0.068l-0.007-0.07
	l-0.001-0.008l-0.008-0.079v-0.005l-0.009-0.074l-0.009-0.079l-0.003-0.029l-0.007-0.051l-0.005-0.042l-0.005-0.038l-0.007-0.054
	l-0.004-0.026l-0.023-0.161v-0.001l-0.013-0.081l-0.002-0.012l-0.011-0.07l-0.014-0.082l-0.006-0.038l-0.008-0.044l-0.009-0.051
	l-0.006-0.032l-0.012-0.064l-0.004-0.019l-0.014-0.077l-0.001-0.006l-0.016-0.083l-0.001-0.007l-0.016-0.077l-0.004-0.02
	l-0.013-0.064l-0.007-0.033l-0.011-0.051l-0.01-0.046l-0.009-0.039l-0.013-0.06l-0.006-0.025l-0.017-0.073l-0.003-0.012l-0.02-0.086
	v-0.001l-0.02-0.085l-0.003-0.015l-0.018-0.072l-0.007-0.028l-0.015-0.058l-0.068-0.262l-0.022-0.084l-0.001-0.004l-0.024-0.088
	l-0.002-0.009l-0.022-0.079l-0.007-0.023l-0.019-0.065l-0.01-0.037l-0.015-0.052l-0.015-0.051l-0.011-0.038l-0.02-0.065L238.094,12
	l-0.024-0.08l-0.003-0.01l-0.028-0.09l-0.001-0.004l-0.028-0.087l-0.006-0.018l-0.024-0.073l-0.01-0.032l-0.02-0.059l-0.015-0.047
	l-0.015-0.045l-0.02-0.061l-0.011-0.031l-0.026-0.075l-0.006-0.017l-0.031-0.09l-0.001-0.002l-0.033-0.092l-0.004-0.012
	l-0.029-0.081l-0.01-0.027l-0.025-0.066l-0.015-0.041l-0.02-0.052l-0.021-0.056l-0.014-0.038l-0.027-0.071l-0.009-0.023
	l-0.033-0.086l-0.003-0.008l-0.037-0.094l-0.003-0.006l-0.035-0.088l-0.008-0.021l-0.03-0.074l-0.015-0.036l-0.024-0.059
	l-0.021-0.051l-0.019-0.044l-0.027-0.065l-0.012-0.03l-0.034-0.081l-0.006-0.015l-0.041-0.096c-0.919-2.122-2.289-4.42-4.195-6.811
	L232.995,2.86z M242.382,3.793l0.005,0.007l0.078,0.101l0.021,0.027l0.062,0.081l0.036,0.047l0.046,0.061l0.051,0.067l0.031,0.041
	l0.065,0.086l0.016,0.021l0.011,0.015l0.149,0.198l0.014,0.018l0.065,0.088l0.028,0.038l0.05,0.069l0.224,0.307l0.007,0.01
	l0.076,0.105l0.075,0.105l0.021,0.029l0.054,0.076l0.147,0.208l0.06,0.086l0.012,0.018l0.143,0.207l0.014,0.02L244,6.01l0.027,0.039
	l0.043,0.064l0.039,0.058l0.03,0.045l0.051,0.076l0.017,0.026l0.063,0.095l0.005,0.007l0.067,0.101l0.008,0.011l0.059,0.09
	l0.02,0.03l0.046,0.071l0.032,0.048l0.034,0.052l0.043,0.067l0.021,0.034l0.054,0.085l0.01,0.015l0.063,0.1l0.002,0.003l0.061,0.096
	l0.014,0.022l0.048,0.078l0.025,0.04l0.036,0.059l0.036,0.058l0.025,0.041l0.047,0.076l0.014,0.023l0.057,0.094l0.003,0.005
	l0.059,0.098l0.008,0.013l0.05,0.085l0.019,0.031l0.039,0.066l0.029,0.049l0.028,0.048l0.039,0.067l0.017,0.03l0.048,0.084
	l0.007,0.012l0.055,0.096l0.003,0.005l0.051,0.091l0.013,0.023l0.041,0.073l0.022,0.04l0.03,0.055l0.032,0.058l0.02,0.037
	l0.041,0.075l0.01,0.02l0.05,0.092l0.001,0.002l0.05,0.095l0.008,0.015l0.042,0.079l0.017,0.032l0.032,0.062l0.025,0.049
	l0.023,0.044l0.034,0.067l0.014,0.027l0.042,0.084l0.005,0.01l0.046,0.093l0.004,0.008l0.042,0.085l0.012,0.024l0.033,0.068
	l0.02,0.041l0.024,0.051l0.028,0.058l0.016,0.034l0.035,0.075l0.008,0.017l0.042,0.091l0.044,0.096l0.007,0.014l0.037,0.082
	l0.013,0.029l0.03,0.067l0.019,0.043l0.023,0.052l0.025,0.057l0.016,0.038l0.031,0.071l0.01,0.024l0.036,0.085l0.004,0.009
	l0.039,0.094l0.002,0.005l0.037,0.09l0.008,0.019l0.03,0.075l0.013,0.033l0.042,0.108l0.018,0.046l0.023,0.061l0.012,0.032
	l0.028,0.074l0.007,0.018l0.033,0.088l0.002,0.005l0.033,0.092l0.003,0.01l0.029,0.082l0.008,0.023l0.023,0.068l0.013,0.037
	l0.019,0.055l0.017,0.051l0.013,0.04l0.03,0.091l0.025,0.077l0.004,0.013l0.028,0.09l0,0l0.027,0.09l0.027,0.09l0.008,0.027
	l0.018,0.062l0.012,0.04l0.014,0.049l0.015,0.053l0.01,0.035l0.018,0.067l0.006,0.022l0.021,0.08l0.002,0.008l0.022,0.088
	l0.001,0.005l0.02,0.083l0.005,0.018l0.017,0.069l0.007,0.031l0.013,0.056l0.02,0.087l0.013,0.057l0.006,0.03l0.015,0.069
	l0.003,0.017l0.017,0.082l0.001,0.004l0.017,0.086c0.022,0.114,0.042,0.228,0.06,0.34l0.01,0.06l0.004,0.025l0.011,0.072
	l0.002,0.012l0.012,0.084l0,0l0.011,0.083c0.021,0.167,0.038,0.332,0.051,0.496l0.006,0.082l0.001,0.005l0.005,0.077l0.001,0.017
	l0.003,0.064c0.011,0.216,0.015,0.428,0.01,0.638c3.061,0.177,5.886,0.371,8.426,0.58c2.216,0.182,4.245,0.378,6.061,0.588
	c-0.587-1.525-1.393-3.085-2.418-4.682c-1.248-1.944-2.821-3.937-4.715-5.978c-1.546-0.613-3.487-1.138-5.819-1.573
	C247.31,4.346,244.996,4.036,242.382,3.793z M192.871,20.435L192.871,20.435c21.015-0.001,41.993,0.447,57.737,1.348
	c4.971,0.285,9.428,0.631,13.216,1.04c3.029,0.303,5.613,0.636,7.663,0.998v-3.454c0-0.117-0.599-0.343-1.714-0.661
	c-1.483-0.422-3.704-0.811-6.537-1.165c-2.073-0.259-4.468-0.498-7.136-0.718c-2.793-0.23-5.844-0.437-9.1-0.621
	c-1.219-0.069-2.442-0.133-3.664-0.194c-1.274-0.063-2.564-0.123-3.867-0.179c-6.352-0.273-13.307-0.483-20.583-0.628
	c-7.511-0.15-15.372-0.233-23.272-0.248l-1.705-0.002h-1.706h-1.706l-1.705,0.002c-7.901,0.015-15.764,0.098-23.276,0.248
	c-7.274,0.145-14.228,0.354-20.578,0.628c-1.303,0.056-2.593,0.116-3.868,0.179c-1.222,0.06-2.444,0.125-3.663,0.194
	c-3.257,0.184-6.308,0.391-9.1,0.621c-2.668,0.22-5.063,0.459-7.136,0.718c-2.833,0.354-5.054,0.742-6.537,1.165
	c-1.115,0.317-1.714,0.543-1.714,0.661v3.454c2.051-0.363,4.634-0.695,7.663-0.998c3.788-0.409,8.245-0.755,13.216-1.04
	c15.744-0.901,36.723-1.349,57.737-1.349v0.001h0.189h0.479h0.479C192.683,20.435,192.871,20.435,192.871,20.435z M129.925,23.435
	c-6.821,0.438-12.386,0.935-16.151,1.484c-0.505,0.082-0.982,0.166-1.427,0.253l-0.844,0.165c-1.826,0.369-3.028,0.759-3.12,1.167
	c-0.003,0.017-0.006,0.033-0.006,0.05h0.003h0.192l0,0h-0.192v44.213c0.596,1.408,1.227,2.613,1.946,3.668
	c0.734,1.077,1.562,2.002,2.542,2.833c0.271,0.229,0.555,0.453,0.854,0.672c0.235,0.172,0.471,0.337,0.709,0.494l0.047-0.008
	l0.27-0.043l0.053-0.009l0.271-0.042l0.058-0.009l0.271-0.041l0.063-0.01l0.271-0.04l0.069-0.01l0.271-0.039l0.075-0.011l0.27-0.038
	l0.08-0.011l0.27-0.037l0.086-0.012l0.27-0.036l0.093-0.013l0.268-0.035l0.099-0.013l0.267-0.034l0.105-0.013l0.267-0.033
	l0.112-0.014l0.058-0.007l0.326-0.04l0.263-0.031l0.367-0.043l0.02-0.002l0.132-0.015l0.26-0.03l0.14-0.016l0.258-0.029l0.147-0.016
	l0.256-0.028l0.154-0.017l0.253-0.027l0.161-0.017l0.251-0.026l0.169-0.018l0.248-0.025l0.177-0.018l0.245-0.024l0.184-0.018
	l0.242-0.023l0.192-0.018l0.239-0.023l0.2-0.019l0.236-0.022l0.208-0.019l0.232-0.021l0.217-0.02l0.229-0.02l0.225-0.02l0.225-0.02
	l0.233-0.02l0.221-0.019l0.242-0.02l0.217-0.018l0.25-0.021l0.213-0.017l0.259-0.021l0.209-0.017l0.268-0.021l0.204-0.016
	l0.277-0.022l0.486-0.037l0.195-0.015l0.295-0.022l0.19-0.014l0.304-0.022l0.185-0.013l0.313-0.022l0.18-0.013l0.323-0.023
	l0.175-0.012l0.332-0.023l0.169-0.012l0.342-0.023l0.164-0.011l0.351-0.023l0.158-0.01l0.361-0.023l0.153-0.01l0.37-0.023
	l0.147-0.009l0.38-0.023l0.141-0.008l0.39-0.024l0.135-0.008l0.4-0.024l0.128-0.008l0.41-0.024l0.122-0.007l0.42-0.024l0.116-0.007
	l0.431-0.024l0.109-0.006l0.44-0.024l0.103-0.006l0.451-0.024l0.096-0.005l0.461-0.024l0.089-0.005l0.472-0.024l0.082-0.004
	l0.482-0.024l0.075-0.004l0.493-0.024l0.068-0.003l0.503-0.024l0.061-0.003l0.514-0.024l0.054-0.003l0.525-0.024l0.046-0.002
	l0.535-0.024l0.039-0.002l0.546-0.024l0.031-0.001l0.557-0.024l0.023-0.001l0.568-0.024l0.016-0.001l0.579-0.024h0.008l0.59-0.024
	c14.215-0.567,31.044-0.778,47.874-0.686c16.83-0.092,33.659,0.119,47.874,0.686l0.59,0.024h0.008l0.579,0.024l0.016,0.001
	l0.568,0.024l0.023,0.001l0.557,0.024l0.031,0.001l0.546,0.024l0.039,0.002l0.535,0.024l0.046,0.002l0.525,0.024l0.054,0.003
	l0.514,0.024l0.061,0.003l0.503,0.024l0.068,0.003l0.493,0.024l0.075,0.004l0.482,0.024l0.082,0.004l0.472,0.024l0.089,0.005
	l0.461,0.024l0.096,0.005l0.451,0.024l0.103,0.006l0.441,0.024l0.109,0.006l0.431,0.024l0.116,0.007l0.42,0.024l0.122,0.007
	l0.41,0.024l0.129,0.008l0.4,0.024l0.135,0.008l0.39,0.024l0.141,0.008l0.38,0.023l0.146,0.009l0.371,0.023l0.153,0.01l0.361,0.023
	l0.158,0.01l0.351,0.023l0.164,0.011l0.342,0.023l0.169,0.012l0.332,0.023l0.175,0.012l0.323,0.023l0.18,0.013l0.313,0.022
	l0.185,0.013l0.304,0.022l0.19,0.014l0.295,0.022l0.195,0.015l0.485,0.037l0.277,0.022l0.204,0.016l0.268,0.021l0.209,0.017
	l0.259,0.021l0.213,0.017l0.251,0.021l0.217,0.018l0.242,0.02l0.221,0.019l0.233,0.02l0.225,0.02l0.225,0.02l0.229,0.02l0.217,0.02
	l0.232,0.021l0.208,0.019l0.236,0.022l0.439,0.042l0.192,0.018l0.242,0.023l0.184,0.018l0.245,0.024l0.177,0.018l0.248,0.025
	l0.169,0.018l0.251,0.026l0.161,0.017l0.253,0.027l0.154,0.017l0.256,0.028l0.147,0.016l0.258,0.029l0.139,0.016l0.26,0.03
	l0.132,0.015l0.02,0.002l0.367,0.043l0.264,0.031l0.118,0.014l0.265,0.033l0.112,0.014l0.266,0.033l0.105,0.013l0.268,0.034
	l0.099,0.013l0.268,0.035l0.093,0.013l0.27,0.036l0.087,0.012l0.27,0.037l0.081,0.011l0.27,0.038l0.075,0.011l0.271,0.039
	l0.069,0.01l0.271,0.04l0.064,0.01l0.271,0.041l0.058,0.009l0.271,0.042l0.053,0.009l0.27,0.043l0.047,0.008
	c0.237-0.157,0.474-0.321,0.709-0.494c0.298-0.219,0.583-0.443,0.853-0.672c0.98-0.831,1.809-1.756,2.542-2.833
	c0.719-1.055,1.35-2.26,1.946-3.668V26.555l0,0h0.003c0-0.02-0.003-0.04-0.007-0.059l-0.002-0.008
	c-0.004-0.017-0.011-0.035-0.019-0.053l-0.006-0.013l-0.022-0.038l-0.023-0.033l-0.017-0.02c-0.31-0.356-1.356-0.698-3.029-1.023
	l-0.844-0.136c-0.257-0.05-0.525-0.099-0.802-0.148c-4.132-0.641-10.722-1.214-18.868-1.708c-3.087-0.169-6.399-0.326-9.892-0.478
	c-14.658-0.638-32.481-0.951-50.295-0.943c-17.814-0.008-35.637,0.305-50.295,0.943C137.613,23.025,133.592,23.22,129.925,23.435z
	 M192.201,76.774c-16.797-0.092-33.604,0.12-47.815,0.686c-12.72,0.507-23.344,1.3-29.993,2.413l-0.049,0.008l-0.049,0.008
	l-0.049,0.008c-0.984,0.167-1.874,0.34-2.661,0.519c-0.796,0.181-1.502,0.372-2.11,0.572c-0.467,0.154-0.858,0.307-1.166,0.458
	c-0.161,0.079-0.302,0.157-0.424,0.236v8.755c10.114-0.609,22.551-1.042,36.216-1.315c15.051-0.301,31.575-0.405,48.102-0.335
	c16.526-0.069,33.051,0.035,48.102,0.335c13.664,0.273,26.102,0.706,36.216,1.315v-8.755c-0.121-0.078-0.262-0.157-0.423-0.236
	c-0.308-0.151-0.699-0.304-1.166-0.458c-0.608-0.201-1.314-0.391-2.109-0.572c-0.787-0.179-1.677-0.352-2.661-0.519l-0.048-0.008
	l-0.049-0.008l-0.049-0.008c-6.648-1.114-17.273-1.906-29.993-2.413c-14.211-0.567-31.018-0.778-47.815-0.686H192.201z
	 M151.338,2.954c-1.907,2.391-3.276,4.689-4.196,6.811l-0.041,0.096l-0.006,0.015l-0.034,0.081l-0.012,0.03l-0.028,0.065
	l-0.019,0.044l-0.021,0.051l-0.024,0.059l-0.015,0.036l-0.03,0.074l-0.008,0.021l-0.035,0.088l-0.003,0.006l-0.037,0.094
	l-0.003,0.008l-0.033,0.086l-0.009,0.023l-0.027,0.071l-0.014,0.038l-0.021,0.056l-0.02,0.052l-0.015,0.041l-0.025,0.066
	l-0.01,0.027l-0.029,0.081l-0.004,0.012l-0.033,0.092l-0.001,0.002l-0.032,0.09l-0.006,0.017l-0.026,0.075l-0.011,0.031l-0.02,0.061
	l-0.015,0.045l-0.015,0.047l-0.02,0.059l-0.01,0.032l-0.024,0.073l-0.006,0.018l-0.028,0.087l-0.001,0.004l-0.028,0.09l-0.003,0.01
	l-0.024,0.08l-0.007,0.024l-0.02,0.065l-0.011,0.038l-0.015,0.051l-0.015,0.052l-0.011,0.037l-0.019,0.065l-0.007,0.023
	l-0.022,0.079l-0.003,0.009l-0.024,0.088l-0.001,0.004l-0.022,0.084l-0.068,0.262l-0.015,0.058l-0.007,0.028l-0.018,0.072
	l-0.003,0.015l-0.02,0.085v0.001l-0.02,0.086l-0.003,0.012l-0.017,0.073l-0.006,0.025l-0.013,0.06l-0.008,0.039l-0.01,0.046
	l-0.011,0.051l-0.007,0.033l-0.013,0.064l-0.004,0.02l-0.016,0.077l-0.001,0.007l-0.016,0.083l-0.001,0.006l-0.014,0.077
	l-0.004,0.019l-0.012,0.064l-0.006,0.032l-0.009,0.051l-0.008,0.044l-0.006,0.038l-0.014,0.082l-0.011,0.07l-0.002,0.012
	l-0.013,0.081v0.001l-0.023,0.161l-0.004,0.026l-0.007,0.054l-0.005,0.038l-0.005,0.042l-0.007,0.051l-0.003,0.029l-0.009,0.079
	l-0.009,0.074v0.005l-0.008,0.079l-0.001,0.008l-0.007,0.07l-0.007,0.068l-0.001,0.01l-0.003,0.032l-0.004,0.046l-0.004,0.044
	l-0.003,0.033c6.124-0.257,12.823-0.455,19.841-0.595c7.285-0.145,14.91-0.228,22.591-0.247V1.455
	c-7.826-0.09-14.614-0.044-20.613,0.16C161.445,1.82,156.21,2.188,151.51,2.74l-0.098,0.122L151.338,2.954z M302.905,416.376
	c1.411-2.983,2.009-6.517,1.795-10.599c-8.657,3.904-21.368,6.857-37.131,8.922c-20.593,2.698-46.475,3.903-75.366,3.748
	c-28.891,0.155-54.773-1.049-75.366-3.748c-15.763-2.066-28.474-5.018-37.131-8.922c-0.214,4.082,0.384,7.616,1.795,10.599
	c1.508,3.189,3.956,5.768,7.342,7.737c8.295,3.176,18.408,5.965,30.338,8.363c11.969,2.406,25.78,4.425,41.43,6.053v-0.001
	c14.187,1.197,22.908,1.742,31.594,1.715c8.681-0.026,17.408-0.625,31.595-1.715v0.001c15.648-1.629,29.457-3.647,41.425-6.053
	c11.93-2.398,22.043-5.187,30.338-8.363C298.949,422.144,301.397,419.565,302.905,416.376z M306.08,405.129
	c0.316,4.559-0.316,8.51-1.896,11.85c-1.642,3.472-4.298,6.269-7.966,8.388l-0.055,0.031l-0.047,0.018
	c-8.359,3.205-18.564,6.02-30.614,8.442c-12.03,2.419-25.889,4.445-41.577,6.077l-0.019,0.003c-14.184,1.09-22.92,1.688-31.7,1.715
	c-8.776,0.027-17.52-0.518-31.71-1.715l-0.014-0.003c-15.688-1.632-29.547-3.658-41.577-6.077
	c-12.05-2.422-22.255-5.237-30.614-8.442l-0.048-0.018l-0.055-0.031c-3.668-2.119-6.324-4.916-7.966-8.388
	c-1.579-3.34-2.212-7.291-1.896-11.85c-1.48-0.722-2.828-1.475-4.035-2.259l-0.1-0.072c-22.999-17.909-41.819-40.937-54.749-67.372
	C6.99,309.964,0,281.351,0,251.115c0-31.759,7.709-61.724,21.359-88.122c14.166-27.398,34.732-50.952,59.719-68.681l0.028-0.016
	l0.008-0.005l0.006-0.006c1.303-0.872,4.271-1.608,8.585-2.215c4.275-0.603,9.979-1.116,16.765-1.545v-9.193v-0.318l0.243-0.213
	c0.249-0.218,0.576-0.426,0.977-0.621c0.389-0.19,0.838-0.369,1.344-0.536c0.629-0.208,1.38-0.41,2.242-0.606
	c0.385-0.087,0.79-0.173,1.214-0.257c-0.182-0.142-0.36-0.287-0.535-0.434c-1.081-0.916-1.992-1.933-2.798-3.115
	c-0.798-1.171-1.49-2.501-2.14-4.053l-0.055-0.132v-0.139V26.555l0,0h0.003c0-0.887,1.618-1.665,4.538-2.339v-3.848
	c0-0.845,0.959-1.514,2.743-2.023c1.473-0.42,3.607-0.803,6.293-1.15c0.637-1.857,1.577-3.753,2.819-5.685
	c1.317-2.051,2.977-4.149,4.979-6.294l0.108-0.116l0.144-0.058c1.648-0.67,3.729-1.24,6.24-1.708
	c2.416-0.45,5.224-0.806,8.422-1.068l0.037-0.046l0.303,0.018l1.615-0.128l-0.15,0.183c0.725,0.01,1.443-0.007,2.154-0.049
	c1.079-0.065,2.142-0.191,3.189-0.377l0.013-0.017l0.003-0.003l0.181-0.221l0.182-0.224l0.283-0.034
	c4.785-0.573,10.15-0.953,16.367-1.164c6.188-0.211,13.222-0.253,21.374-0.152l0.701,0.009v0.697v13.784l0.997-0.001h1.706h1.706
	l0.997,0.001V0.758V0.061l0.7-0.009c8.152-0.101,15.186-0.059,21.374,0.152c6.218,0.212,11.582,0.592,16.367,1.164l0.283,0.034
	l0.183,0.224l0.18,0.221l0.003,0.003l0.013,0.017c1.047,0.186,2.11,0.312,3.19,0.377c0.711,0.043,1.429,0.059,2.154,0.049
	l-0.151-0.183l1.615,0.128l0.303-0.018l0.037,0.046c3.198,0.261,6.006,0.617,8.423,1.068c2.511,0.468,4.591,1.038,6.24,1.708
	l0.143,0.058l0.108,0.116c2.001,2.145,3.661,4.243,4.978,6.294c1.241,1.933,2.181,3.828,2.819,5.685
	c2.687,0.347,4.821,0.731,6.293,1.15c1.784,0.508,2.743,1.177,2.743,2.023v3.848c2.92,0.674,4.538,1.453,4.538,2.339h0.003l0,0
	v44.353v0.139l-0.055,0.132c-0.649,1.552-1.341,2.882-2.14,4.053c-0.805,1.182-1.716,2.199-2.797,3.115
	c-0.174,0.148-0.352,0.292-0.535,0.434c0.424,0.084,0.829,0.169,1.214,0.257c0.863,0.196,1.613,0.398,2.242,0.606
	c0.506,0.167,0.955,0.346,1.344,0.536c0.401,0.196,0.728,0.403,0.977,0.621l0.243,0.213v0.318v9.193
	c6.786,0.429,12.49,0.942,16.765,1.545c4.314,0.607,7.282,1.342,8.585,2.215l0.006,0.006l0.008,0.005l0.028,0.016
	c24.987,17.729,45.552,41.282,59.719,68.681c13.65,26.399,21.359,56.363,21.359,88.122c0,30.235-6.991,58.848-19.444,84.31
	c-12.93,26.436-31.75,49.463-54.75,67.372l-0.099,0.072C308.907,403.654,307.56,404.407,306.08,405.129z M277.147,93.309
	c-10.29-0.636-22.977-1.085-36.897-1.363c-15.045-0.3-31.548-0.404-48.04-0.335h-0.011c-16.493-0.069-32.995,0.035-48.04,0.335
	c-13.919,0.278-26.607,0.727-36.897,1.363c-6.987,0.432-12.836,0.951-17.169,1.562c-3.867,0.544-6.425,1.128-7.377,1.746
	c-24.621,17.47-44.885,40.677-58.842,67.672C10.43,190.291,2.836,219.815,2.836,251.116c0,29.808,6.883,57.999,19.145,83.069
	c12.729,26.024,31.254,48.699,53.894,66.342c7.913,5.122,22.308,8.878,41.33,11.371c20.475,2.683,46.23,3.88,74.994,3.725h0.011
	c28.764,0.155,54.52-1.043,74.994-3.725c19.022-2.493,33.417-6.249,41.33-11.371c22.64-17.643,41.165-40.318,53.894-66.341
	c12.262-25.07,19.145-53.262,19.145-83.07c0-31.301-7.594-60.825-21.038-86.827c-13.958-26.995-34.221-50.202-58.842-67.672
	c-0.951-0.618-3.51-1.201-7.377-1.746C289.983,94.261,284.134,93.742,277.147,93.309z"/>
<path d="M28.064,186.313c2.942-2.938,5.247-2.763,7.037,0.391c4.558,8.037,6.833,37.64,6.833,67.211
	c0,29.614-2.281,59.28-6.833,67.305c-1.784,3.145-4.082,3.328-7.014,0.414c-2.547-2.531-5.638-7.667-9.374-15.521l-0.016-0.039
	c-3.34-8.257-5.908-16.822-7.63-25.631c-1.684-8.617-2.562-17.469-2.562-26.494c0-8.992,0.871-17.814,2.545-26.404
	c1.711-8.783,4.262-17.323,7.579-25.554l0.016-0.038C22.4,194.044,25.505,188.868,28.064,186.313 M33.871,187.402
	c-1.18-2.08-2.755-2.14-4.811-0.086c-2.438,2.435-5.448,7.475-9.131,15.229c-3.278,8.138-5.799,16.582-7.491,25.268
	c-1.655,8.496-2.517,17.229-2.517,26.138c0,8.938,0.868,17.699,2.534,26.223c1.705,8.718,4.243,17.19,7.542,25.35
	c3.663,7.697,6.659,12.697,9.086,15.109c2.044,2.031,3.613,1.964,4.788-0.109c4.426-7.803,6.644-37.19,6.644-66.608
	C40.516,224.541,38.304,195.217,33.871,187.402z"/>
<path d="M355.348,187.316c-2.056-2.053-3.632-1.993-4.811,0.086c-4.433,7.815-6.644,37.139-6.644,66.514
	c0,29.418,2.218,58.804,6.644,66.608c1.176,2.073,2.744,2.14,4.788,0.109c2.427-2.412,5.423-7.413,9.086-15.109
	c3.299-8.161,5.837-16.632,7.542-25.35c1.666-8.524,2.534-17.285,2.534-26.223c0-8.909-0.862-17.642-2.517-26.138
	c-1.692-8.686-4.214-17.13-7.491-25.268C360.796,194.79,357.785,189.75,355.348,187.316 M349.307,186.705
	c1.789-3.155,4.095-3.33,7.037-0.391c2.558,2.555,5.663,7.731,9.419,15.64l0.017,0.038c3.317,8.231,5.868,16.771,7.579,25.554
	c1.673,8.59,2.545,17.412,2.545,26.404c0,9.025-0.877,17.877-2.562,26.494c-1.722,8.809-4.29,17.374-7.63,25.631l-0.016,0.039
	c-3.737,7.854-6.827,12.989-9.374,15.521c-2.932,2.914-5.23,2.731-7.014-0.414c-4.551-8.025-6.833-37.691-6.833-67.305
	C342.474,224.345,344.749,194.741,349.307,186.705z"/>
<g enable-background="new    ">
	<path fill="none" stroke="#FEFEFE" stroke-width="0.216" stroke-miterlimit="22.9256" d="M210.244,269.206h1.16
		c0.709,0,1.869,0.967,3.481,2.901v0.193c-1.612,1.934-2.772,2.9-3.481,2.9h-1.16c-0.709,0-1.87-0.967-3.481-2.9v-0.193
		C208.373,270.173,209.535,269.206,210.244,269.206z"/>
</g>
<g enable-background="new    ">
	<path d="M160.796,247.496c1.901,1.579,2.868,2.482,2.901,2.707v18.567c-0.033,0.227-1,1.129-2.901,2.708
		c-1.903-1.579-2.87-2.481-2.901-2.708v-18.567C157.927,249.979,158.893,249.076,160.796,247.496z M164.664,216.937h18.567
		c0.225,0.032,1.128,1,2.708,2.901c-1.58,1.903-2.482,2.87-2.708,2.901h-18.567c-0.226-0.031-1.129-0.998-2.708-2.901
		C163.536,217.937,164.438,216.97,164.664,216.937z M164.471,243.435h18.954c0.806,0.806,1.644,1.772,2.514,2.9
		c-0.87,1.129-1.708,2.096-2.514,2.901h-18.954c-0.806-0.806-1.644-1.772-2.514-2.901
		C162.827,245.207,163.664,244.241,164.471,243.435z M164.664,269.931h18.567c0.225,0.033,1.128,1,2.708,2.901
		c-1.58,1.902-2.482,2.87-2.708,2.901h-18.567c-0.226-0.031-1.129-0.999-2.708-2.901
		C163.536,270.931,164.438,269.964,164.664,269.931z M187.1,220.999c1.902,1.581,2.869,2.483,2.901,2.708v18.566
		c-0.033,0.227-1,1.129-2.901,2.708c-1.902-1.579-2.869-2.481-2.901-2.708v-18.566C184.23,223.482,185.197,222.579,187.1,220.999z"
		/>
</g>
<g enable-background="new    ">
	<path d="M201.425,219.065v24.177c0,0.161-0.967,1.128-2.9,2.9c-0.162,0-1.129-0.967-2.901-2.9v-18.567L201.425,219.065z
		 M198.525,248.657c0.16,0,1.128,0.967,2.9,2.901v24.176c-0.161,0-2.096-1.934-5.802-5.803v-18.373
		C195.623,251.397,196.59,250.43,198.525,248.657z"/>
</g>
<g enable-background="new    ">
	<path d="M210.244,269.206h1.16c0.709,0,1.869,0.967,3.481,2.901v0.193c-1.612,1.934-2.772,2.9-3.481,2.9h-1.16
		c-0.709,0-1.87-0.967-3.481-2.9v-0.193C208.373,270.173,209.535,269.206,210.244,269.206z"/>
</g>
<g enable-background="new    ">
	<path d="M221.697,220.999c1.901,1.581,2.868,2.483,2.9,2.708v18.566c-0.032,0.227-0.999,1.129-2.9,2.708
		c-1.903-1.579-2.87-2.481-2.901-2.708v-18.566C218.827,223.482,219.793,222.579,221.697,220.999z M225.565,216.937h18.566
		c0.226,0.032,1.128,1,2.708,2.901c-1.58,1.903-2.482,2.87-2.708,2.901h-18.566c-0.227-0.031-1.129-0.998-2.708-2.901
		C224.436,217.937,225.338,216.97,225.565,216.937z M225.37,243.435h18.954c0.806,0.806,1.645,1.772,2.515,2.9
		c-0.87,1.129-1.709,2.096-2.515,2.901H225.37c-0.806-0.806-1.644-1.772-2.514-2.901
		C223.727,245.207,224.565,244.241,225.37,243.435z M225.565,269.931h18.566c0.226,0.033,1.128,1,2.708,2.901
		c-1.58,1.902-2.482,2.87-2.708,2.901h-18.566c-0.227-0.031-1.129-0.999-2.708-2.901
		C224.436,270.931,225.338,269.964,225.565,269.931z M247.999,247.69c1.902,1.579,2.869,2.482,2.901,2.707v18.567
		c-0.032,0.227-0.999,1.129-2.901,2.708c-1.902-1.579-2.869-2.481-2.9-2.708v-18.567C245.13,250.172,246.097,249.269,247.999,247.69
		z"/>
</g>
</svg>
